<svg width="14" height="14" viewBox="0 0 14 14" fill="none" xmlns="http://www.w3.org/2000/svg">
<path d="M0.31058 0.321199C0.724687 -0.0929084 1.39363 -0.0929084 1.80774 0.321199L7 5.50284L12.1923 0.31058C12.6064 -0.103527 13.2753 -0.103527 13.6894 0.31058C14.1035 0.724687 14.1035 1.39363 13.6894 1.80774L8.49716 7L13.6894 12.1923C14.1035 12.6064 14.1035 13.2753 13.6894 13.6894C13.2753 14.1035 12.6064 14.1035 12.1923 13.6894L7 8.49716L1.80774 13.6894C1.39363 14.1035 0.724687 14.1035 0.31058 13.6894C-0.103527 13.2753 -0.103527 12.6064 0.31058 12.1923L5.50284 7L0.31058 1.80774C-0.0929089 1.40425 -0.0929089 0.724687 0.31058 0.321199Z" fill="#4A5565"/>
</svg>
