<svg width="20" height="18" viewBox="0 0 20 18" fill="none" xmlns="http://www.w3.org/2000/svg">
<path d="M1 14.5C1 15.3333 1.38919 17 2.94595 17H16.5676C17.3784 17 19 16.5 19 14.5V8H1V14.5Z" fill="white"/>
<path d="M19 5.5C19 4.66667 18.4162 3 16.0811 3H10.2432C9.91892 3 9.27027 2.8 9.27027 2C9.27027 1 8.78378 1 7.81081 1H2.94595C2.2973 1 1 1.4 1 3V8H19V5.5Z" fill="white"/>
<path d="M2.94595 17C1.38919 17 1 15.3333 1 14.5V8M2.94595 17C4.5027 17 12.6757 17 16.5676 17M2.94595 17H16.5676M16.5676 17C17.3784 17 19 16.5 19 14.5M19 14.5C19 13.0956 19 10.2942 19 8M19 14.5V8M19 5.5C19 4.66667 18.4162 3 16.0811 3M19 5.5C19 6.14525 19 7.02701 19 8M19 5.5V8M16.0811 3C13.7459 3 11.2162 3 10.2432 3M16.0811 3H10.2432M10.2432 3C9.91892 3 9.27027 2.8 9.27027 2C9.27027 1 8.78378 1 7.81081 1M7.81081 1C7.03243 1 4.24324 1 2.94595 1M7.81081 1H2.94595M2.94595 1C2.2973 1 1 1.4 1 3V8M19 8H1" stroke="#171717"/>
</svg>
