<svg width="14" height="18" viewBox="0 0 14 18" fill="none" xmlns="http://www.w3.org/2000/svg">
<path d="M6.125 11.5425V14.4C6.125 14.655 6.209 14.8686 6.377 15.0408C6.54442 15.2136 6.75208 15.3 7 15.3C7.24792 15.3 7.45588 15.2136 7.62388 15.0408C7.79129 14.8686 7.875 14.655 7.875 14.4V11.5425L8.6625 12.3525C8.75 12.4425 8.84858 12.51 8.95825 12.555C9.06733 12.6 9.17671 12.6186 9.28638 12.6108C9.39546 12.6036 9.50104 12.5775 9.60313 12.5325C9.70521 12.4875 9.8 12.42 9.8875 12.33C10.0479 12.15 10.1319 11.94 10.1395 11.7C10.1465 11.46 10.0625 11.25 9.8875 11.07L7.6125 8.73C7.525 8.64 7.43021 8.5761 7.32812 8.5383C7.22604 8.5011 7.11667 8.4825 7 8.4825C6.88333 8.4825 6.77396 8.5011 6.67188 8.5383C6.56979 8.5761 6.475 8.64 6.3875 8.73L4.1125 11.07C3.9375 11.25 3.85379 11.46 3.86138 11.7C3.86838 11.94 3.95938 12.15 4.13438 12.33C4.30938 12.495 4.51354 12.5814 4.74688 12.5892C4.98021 12.5964 5.18437 12.51 5.35938 12.33L6.125 11.5425ZM1.75 18C1.26875 18 0.856917 17.8239 0.5145 17.4717C0.1715 17.1189 0 16.695 0 16.2V1.8C0 1.305 0.1715 0.8811 0.5145 0.5283C0.856917 0.1761 1.26875 0 1.75 0H8.02812C8.26146 0 8.484 0.0450001 8.69575 0.135C8.90692 0.225 9.09271 0.3525 9.25313 0.5175L13.4969 4.8825C13.6573 5.0475 13.7812 5.2386 13.8688 5.4558C13.9563 5.6736 14 5.9025 14 6.1425V16.2C14 16.695 13.8288 17.1189 13.4864 17.4717C13.1434 17.8239 12.7312 18 12.25 18H1.75ZM7.875 5.4V1.8H1.75V16.2H12.25V6.3H8.75C8.50208 6.3 8.29442 6.2136 8.127 6.0408C7.959 5.8686 7.875 5.655 7.875 5.4Z" fill="white"/>
</svg>
