<svg width="18" height="16" viewBox="0 0 18 16" fill="none" xmlns="http://www.w3.org/2000/svg">
<path d="M1.8 16C1.305 16 0.8814 15.8261 0.5292 15.4782C0.1764 15.1298 0 14.7111 0 14.2222V3.55556C0 3.06667 0.1764 2.6483 0.5292 2.30044C0.8814 1.952 1.305 1.77778 1.8 1.77778H4.635L5.76 0.577778C5.925 0.385185 6.1236 0.240593 6.3558 0.144C6.5886 0.0479999 6.8325 0 7.0875 0H10.9125C11.1675 0 11.4114 0.0479999 11.6442 0.144C11.8764 0.240593 12.075 0.385185 12.24 0.577778L13.365 1.77778H16.2C16.695 1.77778 17.1189 1.952 17.4717 2.30044C17.8239 2.6483 18 3.06667 18 3.55556V14.2222C18 14.7111 17.8239 15.1298 17.4717 15.4782C17.1189 15.8261 16.695 16 16.2 16H1.8ZM16.2 14.2222V3.55556H1.8V14.2222H16.2Z" fill="white"/>
<circle cx="9" cy="9" r="3" fill="white"/>
</svg>
