<svg width="16" height="16" viewBox="0 0 16 16" fill="none" xmlns="http://www.w3.org/2000/svg">
<path d="M3.55556 12.4444H12.4444C12.6222 12.4444 12.7556 12.363 12.8444 12.2C12.9333 12.037 12.9185 11.8815 12.8 11.7333L10.3556 8.46667C10.2667 8.34815 10.1481 8.28889 10 8.28889C9.85185 8.28889 9.73333 8.34815 9.64444 8.46667L7.33333 11.5556L5.68889 9.35556C5.6 9.23704 5.48148 9.17778 5.33333 9.17778C5.18519 9.17778 5.06667 9.23704 4.97778 9.35556L3.2 11.7333C3.08148 11.8815 3.06667 12.037 3.15556 12.2C3.24444 12.363 3.37778 12.4444 3.55556 12.4444ZM1.77778 16C1.28889 16 0.870222 15.8261 0.521778 15.4782C0.173926 15.1298 0 14.7111 0 14.2222V1.77778C0 1.28889 0.173926 0.870222 0.521778 0.521778C0.870222 0.173926 1.28889 0 1.77778 0H14.2222C14.7111 0 15.1298 0.173926 15.4782 0.521778C15.8261 0.870222 16 1.28889 16 1.77778V14.2222C16 14.7111 15.8261 15.1298 15.4782 15.4782C15.1298 15.8261 14.7111 16 14.2222 16H1.77778ZM1.77778 14.2222H14.2222V1.77778H1.77778V14.2222Z" fill="white"/>
</svg>
