<svg width="8" height="8" viewBox="0 0 8 8" fill="none" xmlns="http://www.w3.org/2000/svg">
<path d="M0.780488 8C0.565854 8 0.382049 7.9236 0.229073 7.77082C0.0763577 7.61829 0 7.43484 0 7.22046V1.7637C0 1.54933 0.0763577 1.36575 0.229073 1.21296C0.382049 1.06043 0.565854 0.984165 0.780488 0.984165H4.26341L3.48293 1.7637H0.780488V7.22046H6.2439V4.51157L7.02439 3.73203V7.22046C7.02439 7.43484 6.94803 7.61829 6.79532 7.77082C6.64234 7.9236 6.45854 8 6.2439 8H0.780488ZM5.14146 1.20828L5.69756 1.75396L3.12195 4.32643V4.88185H3.66829L6.25366 2.29963L6.80976 2.84531L4.22439 5.42753C4.15285 5.49898 4.06998 5.55589 3.9758 5.59825C3.88137 5.64034 3.78211 5.66139 3.67805 5.66139H2.73171C2.62114 5.66139 2.52852 5.6241 2.45385 5.54952C2.37893 5.47469 2.34146 5.38205 2.34146 5.27162V4.32643C2.34146 4.22249 2.36098 4.12336 2.4 4.02904C2.43902 3.93497 2.49431 3.85221 2.56585 3.78075L5.14146 1.20828ZM6.80976 2.84531L5.14146 1.20828L6.11707 0.233861C6.27317 0.0779538 6.46023 0 6.67824 0C6.896 0 7.07967 0.0779538 7.22927 0.233861L7.77561 0.789281C7.9252 0.938693 8 1.12058 8 1.33496C8 1.54933 7.9252 1.73122 7.77561 1.88063L6.80976 2.84531Z" fill="#4A5565"/>
</svg>
