<svg width="18" height="16" viewBox="0 0 18 16" fill="none" xmlns="http://www.w3.org/2000/svg">
<path d="M17 7.125C17 9.13242 17 11.5837 17 12.8125C17 14.5625 15.5586 15 14.8378 15C11.3784 15 4.11351 15 2.72973 15C1.34595 15 1 13.5417 1 12.8125V7.125M17 7.125C17 6.27363 17 5.50209 17 4.9375C17 4.20833 16.4811 2.75 14.4054 2.75C12.3297 2.75 10.0811 2.75 9.21622 2.75C8.92793 2.75 8.35135 2.575 8.35135 1.875C8.35135 1 7.91892 1 7.05405 1C6.36216 1 3.88288 1 2.72973 1C2.15315 1 1 1.35 1 2.75V7.125M17 7.125H1" stroke="white"/>
</svg>
