<svg width="18" height="24" viewBox="0 0 18 24" fill="none" xmlns="http://www.w3.org/2000/svg">
<path d="M6.6 24C4.76 24 3.2 23.36 1.92 22.08C0.64 20.8 0 19.24 0 17.4V4.8C0 3.48 0.47 2.35 1.41 1.41C2.35 0.47 3.48 0 4.8 0C6.12 0 7.25 0.47 8.19 1.41C9.13 2.35 9.6 3.48 9.6 4.8V14.4H7.8V4.8C7.8 3.96 7.51 3.25 6.93 2.67C6.35 2.09 5.64 1.8 4.8 1.8C3.96 1.8 3.25 2.09 2.67 2.67C2.09 3.25 1.8 3.96 1.8 4.8V17.4C1.8 18.72 2.27 19.85 3.21 20.79C4.15 21.73 5.28 22.2 6.6 22.2C7.18 22.2 7.7252 22.1048 8.2356 21.9144C8.7452 21.7248 9.2 21.46 9.6 21.12V23.28C9.14 23.5 8.66 23.6748 8.16 23.8044C7.66 23.9348 7.14 24 6.6 24ZM12 19.2H9.6C9.26 19.2 8.9752 19.0848 8.7456 18.8544C8.5152 18.6248 8.4 18.34 8.4 18C8.4 17.66 8.5152 17.3752 8.7456 17.1456C8.9752 16.9152 9.26 16.8 9.6 16.8H12V14.4C12 14.06 12.1152 13.7748 12.3456 13.5444C12.5752 13.3148 12.86 13.2 13.2 13.2C13.54 13.2 13.8248 13.3148 14.0544 13.5444C14.2848 13.7748 14.4 14.06 14.4 14.4V16.8H16.8C17.14 16.8 17.4248 16.9152 17.6544 17.1456C17.8848 17.3752 18 17.66 18 18C18 18.34 17.8848 18.6248 17.6544 18.8544C17.4248 19.0848 17.14 19.2 16.8 19.2H14.4V21.6C14.4 21.94 14.2848 22.2248 14.0544 22.4544C13.8248 22.6848 13.54 22.8 13.2 22.8C12.86 22.8 12.5752 22.6848 12.3456 22.4544C12.1152 22.2248 12 21.94 12 21.6V19.2ZM6.6 17.4V19.2C5.76 19.2 5.05 18.91 4.47 18.33C3.89 17.75 3.6 17.04 3.6 16.2V5.7C3.6 5.44 3.6852 5.2252 3.8556 5.0556C4.0252 4.8852 4.24 4.8 4.5 4.8C4.76 4.8 4.9752 4.8852 5.1456 5.0556C5.3152 5.2252 5.4 5.44 5.4 5.7V16.2C5.4 16.54 5.5152 16.8248 5.7456 17.0544C5.9752 17.2848 6.26 17.4 6.6 17.4ZM11.4 10.8V5.7C11.4 5.44 11.4852 5.2252 11.6556 5.0556C11.8252 4.8852 12.04 4.8 12.3 4.8C12.56 4.8 12.7752 4.8852 12.9456 5.0556C13.1152 5.2252 13.2 5.44 13.2 5.7V10.8H11.4Z" fill="#505050"/>
</svg>
