<svg width="14" height="14" viewBox="0 0 14 14" fill="none" xmlns="http://www.w3.org/2000/svg">
<path d="M1.43406 14C1.03969 14 0.701972 13.8558 0.420896 13.5675C0.140299 13.2786 0 12.9316 0 12.5263V2.21053C0 1.80526 0.140299 1.45821 0.420896 1.16937C0.701972 0.881017 1.03969 0.736842 1.43406 0.736842H5.01921V2.21053H1.43406V12.5263H11.4725V8.58421L12.9065 10.0579V12.5263C12.9065 12.9316 12.7662 13.2786 12.4856 13.5675C12.2046 13.8558 11.8668 14 11.4725 14H1.43406ZM12.799 7.88421L11.0781 6.11579C10.8271 6.28772 10.5583 6.41667 10.2714 6.50263C9.98464 6.5886 9.6799 6.63158 9.35723 6.63158C8.4729 6.63158 7.72002 6.30933 7.09859 5.66484C6.47717 5.01986 6.16645 4.23684 6.16645 3.31579C6.16645 2.39474 6.48027 1.61172 7.10791 0.966737C7.73507 0.322246 8.4968 0 9.39309 0C10.2894 0 11.0513 0.322246 11.679 0.966737C12.3061 1.61172 12.6197 2.39474 12.6197 3.31579C12.6197 3.64737 12.5719 3.96667 12.4763 4.27368C12.3807 4.5807 12.2612 4.86316 12.1178 5.12105L13.8028 6.85263C13.9343 6.98772 14 7.15965 14 7.36842C14 7.57719 13.9343 7.74912 13.8028 7.88421C13.6714 8.0193 13.5041 8.08684 13.3009 8.08684C13.0977 8.08684 12.9304 8.0193 12.799 7.88421ZM9.39309 5.15789C9.89501 5.15789 10.3192 4.97982 10.6658 4.62368C11.0124 4.26754 11.1857 3.83158 11.1857 3.31579C11.1857 2.8 11.0124 2.36403 10.6658 2.00789C10.3192 1.65175 9.89501 1.47368 9.39309 1.47368C8.89117 1.47368 8.46692 1.65175 8.12036 2.00789C7.77379 2.36403 7.60051 2.8 7.60051 3.31579C7.60051 3.83158 7.77379 4.26754 8.12036 4.62368C8.46692 4.97982 8.89117 5.15789 9.39309 5.15789ZM2.86812 11.0526C2.72471 11.0526 2.61716 10.9851 2.54545 10.85C2.47375 10.7149 2.4857 10.586 2.58131 10.4632L4.01537 8.4921C4.08707 8.39386 4.18267 8.34474 4.30218 8.34474C4.42168 8.34474 4.51729 8.39386 4.58899 8.4921L5.91549 10.3158L7.77977 7.75526C7.85147 7.65702 7.94708 7.60789 8.06658 7.60789C8.18609 7.60789 8.28169 7.65702 8.35339 7.75526L10.3252 10.4632C10.4208 10.586 10.4328 10.7149 10.3611 10.85C10.2894 10.9851 10.1818 11.0526 10.0384 11.0526H2.86812Z" fill="black"/>
</svg>
