<svg width="20" height="20" viewBox="0 0 20 20" fill="none" xmlns="http://www.w3.org/2000/svg">
<path d="M10 11.7875C9.93333 11.7875 9.87083 11.777 9.8125 11.756C9.75417 11.7353 9.7 11.7 9.65 11.65L7.85 9.85C7.75833 9.75833 7.7125 9.64167 7.7125 9.5C7.7125 9.35833 7.75833 9.24167 7.85 9.15C7.94167 9.05833 8.06033 9.01033 8.206 9.006C8.352 9.002 8.47083 9.04583 8.5625 9.1375L9.5 10.075V6.5C9.5 6.35833 9.548 6.2395 9.644 6.1435C9.73967 6.04783 9.85833 6 10 6C10.1417 6 10.2605 6.04783 10.3565 6.1435C10.4522 6.2395 10.5 6.35833 10.5 6.5V10.075L11.4375 9.1375C11.5292 9.04583 11.648 9.002 11.794 9.006C11.9397 9.01033 12.0583 9.05833 12.15 9.15C12.2417 9.24167 12.2875 9.35833 12.2875 9.5C12.2875 9.64167 12.2417 9.75833 12.15 9.85L10.35 11.65C10.3 11.7 10.2458 11.7353 10.1875 11.756C10.1292 11.777 10.0667 11.7875 10 11.7875ZM7 14C6.725 14 6.48967 13.9022 6.294 13.7065C6.098 13.5105 6 13.275 6 13V12C6 11.8583 6.04783 11.7395 6.1435 11.6435C6.2395 11.5478 6.35833 11.5 6.5 11.5C6.64167 11.5 6.7605 11.5478 6.8565 11.6435C6.95217 11.7395 7 11.8583 7 12V13H13V12C13 11.8583 13.048 11.7395 13.144 11.6435C13.2397 11.5478 13.3583 11.5 13.5 11.5C13.6417 11.5 13.7603 11.5478 13.856 11.6435C13.952 11.7395 14 11.8583 14 12V13C14 13.275 13.9022 13.5105 13.7065 13.7065C13.5105 13.9022 13.275 14 13 14H7Z" fill="black"/>
<circle cx="10" cy="10" r="9" stroke="#171717"/>
</svg>
