<svg width="12" height="12" viewBox="0 0 12 12" fill="none" xmlns="http://www.w3.org/2000/svg">
<path d="M5.5 9.5H3.5C3.35833 9.5 3.23958 9.54792 3.14375 9.64375C3.04792 9.73958 3 9.85833 3 10C3 10.1417 3.04792 10.2604 3.14375 10.3562C3.23958 10.4521 3.35833 10.5 3.5 10.5H8.5C8.64167 10.5 8.76042 10.4521 8.85625 10.3562C8.95208 10.2604 9 10.1417 9 10C9 9.85833 8.95208 9.73958 8.85625 9.64375C8.76042 9.54792 8.64167 9.5 8.5 9.5H6.5V5.9L6.95 6.35C7.04167 6.44167 7.15833 6.4875 7.3 6.4875C7.44167 6.4875 7.55833 6.44167 7.65 6.35C7.74167 6.25833 7.7875 6.14167 7.7875 6C7.7875 5.85833 7.74167 5.74167 7.65 5.65L6.35 4.35C6.25 4.25 6.13333 4.2 6 4.2C5.86667 4.2 5.75 4.25 5.65 4.35L4.35 5.65C4.25833 5.74167 4.2125 5.85833 4.2125 6C4.2125 6.14167 4.25833 6.25833 4.35 6.35C4.44167 6.44167 4.55833 6.4875 4.7 6.4875C4.84167 6.4875 4.95833 6.44167 5.05 6.35L5.5 5.9V9.5ZM2 8C1.725 8 1.48958 7.90208 1.29375 7.70625C1.09792 7.51042 1 7.275 1 7V2.5C1 2.225 1.09792 1.98958 1.29375 1.79375C1.48958 1.59792 1.725 1.5 2 1.5H10C10.275 1.5 10.5104 1.59792 10.7063 1.79375C10.9021 1.98958 11 2.225 11 2.5V7C11 7.275 10.9021 7.51042 10.7063 7.70625C10.5104 7.90208 10.275 8 10 8H8C7.85833 8 7.73958 7.95208 7.64375 7.85625C7.54792 7.76042 7.5 7.64167 7.5 7.5C7.5 7.35833 7.54792 7.23958 7.64375 7.14375C7.73958 7.04792 7.85833 7 8 7H10V2.5H2V7H4C4.14167 7 4.26042 7.04792 4.35625 7.14375C4.45208 7.23958 4.5 7.35833 4.5 7.5C4.5 7.64167 4.45208 7.76042 4.35625 7.85625C4.26042 7.95208 4.14167 8 4 8H2Z" fill="#171717"/>
</svg>
