<svg width="12" height="12" viewBox="0 0 12 12" fill="none" xmlns="http://www.w3.org/2000/svg">
<path d="M6.2375 8.4125L10.425 4.225L9.775 3.575L5.5875 7.7625L6.2375 8.4125ZM1.5 7.6375C1.5 7.87917 1.58333 8.06667 1.75 8.2C1.91667 8.33333 2.19167 8.42083 2.575 8.4625C2.70833 8.47917 2.81458 8.53958 2.89375 8.64375C2.97292 8.74792 3.00833 8.86667 3 9C2.99167 9.14167 2.94167 9.25833 2.85 9.35C2.75833 9.44167 2.64583 9.47917 2.5125 9.4625C1.8375 9.37917 1.33333 9.18542 1 8.88125C0.666667 8.57708 0.5 8.1625 0.5 7.6375C0.5 7.09583 0.722917 6.65625 1.16875 6.31875C1.61458 5.98125 2.23333 5.77917 3.025 5.7125C3.35 5.6875 3.59375 5.63542 3.75625 5.55625C3.91875 5.47708 4 5.36667 4 5.225C4 5.04167 3.9125 4.89792 3.7375 4.79375C3.5625 4.68958 3.275 4.60833 2.875 4.55C2.74167 4.53333 2.63542 4.47083 2.55625 4.3625C2.47708 4.25417 2.44583 4.13333 2.4625 4C2.47917 3.85833 2.5375 3.74375 2.6375 3.65625C2.7375 3.56875 2.85417 3.53333 2.9875 3.55C3.67917 3.65 4.1875 3.83542 4.5125 4.10625C4.8375 4.37708 5 4.75 5 5.225C5 5.66667 4.83958 6.0125 4.51875 6.2625C4.19792 6.5125 3.725 6.6625 3.1 6.7125C2.56667 6.75417 2.16667 6.85208 1.9 7.00625C1.63333 7.16042 1.5 7.37083 1.5 7.6375ZM6.475 9.5875L4.4125 7.525L9.1875 2.75C9.35417 2.58333 9.55208 2.5 9.78125 2.5C10.0104 2.5 10.2083 2.58333 10.375 2.75L11.25 3.625C11.4167 3.79167 11.5 3.98958 11.5 4.21875C11.5 4.44792 11.4167 4.64583 11.25 4.8125L6.475 9.5875ZM4.4875 10C4.34583 10.0333 4.22083 9.99583 4.1125 9.8875C4.00417 9.77917 3.96667 9.65417 4 9.5125L4.4125 7.525L6.475 9.5875L4.4875 10Z" fill="#171717"/>
</svg>
