<svg width="20" height="18" viewBox="0 0 20 18" fill="none" xmlns="http://www.w3.org/2000/svg">
<path d="M19 4.80952L19.517 5.35284C19.6658 5.21127 19.75 5.01489 19.75 4.80952C19.75 4.60416 19.6658 4.40778 19.517 4.26621L19 4.80952ZM15.5137 0.456682C15.2136 0.171142 14.7389 0.182918 14.4534 0.482984C14.1678 0.78305 14.1796 1.25778 14.4797 1.54332L15.5137 0.456682ZM14.4797 8.07573C14.1796 8.36127 14.1678 8.836 14.4534 9.13606C14.7389 9.43613 15.2136 9.44791 15.5137 9.16237L14.4797 8.07573ZM19 4.80952V4.05952H7.04855V4.80952V5.55952H19V4.80952ZM7.04855 4.80952V4.05952C4.82684 4.05952 3.10644 4.90677 1.94969 6.21816C0.805494 7.51531 0.250004 9.2227 0.25 10.9048C0.249996 12.5868 0.805477 14.2942 1.94968 15.5914C3.10643 16.9028 4.82682 17.75 7.04855 17.75V17V16.25C5.2379 16.25 3.93402 15.5734 3.07458 14.5991C2.2026 13.6106 1.75 12.2703 1.75 10.9048C1.75 9.53921 2.20261 8.19897 3.0746 7.21042C3.93404 6.23609 5.23792 5.55952 7.04855 5.55952V4.80952ZM7.04855 17V17.75C7.06009 17.75 7.0716 17.75 7.08308 17.75C7.09456 17.75 7.10602 17.75 7.11746 17.75C7.12889 17.75 7.1403 17.75 7.15168 17.75C7.16307 17.75 7.17443 17.75 7.18576 17.75C7.1971 17.75 7.20841 17.75 7.21969 17.75C7.23098 17.75 7.24224 17.75 7.25348 17.75C7.26471 17.75 7.27592 17.75 7.28711 17.75C7.2983 17.75 7.30946 17.75 7.3206 17.75C7.33174 17.75 7.34285 17.75 7.35394 17.75C7.36503 17.75 7.37609 17.75 7.38713 17.75C7.39817 17.75 7.40919 17.75 7.42018 17.75C7.43117 17.75 7.44214 17.75 7.45308 17.75C7.46402 17.75 7.47494 17.75 7.48583 17.75C7.49673 17.75 7.5076 17.75 7.51845 17.75C7.52929 17.75 7.54011 17.75 7.55091 17.75C7.56171 17.75 7.57248 17.75 7.58323 17.75C7.59398 17.75 7.60471 17.75 7.61541 17.75C7.62611 17.75 7.63679 17.75 7.64744 17.75C7.6581 17.75 7.66873 17.75 7.67934 17.75C7.68994 17.75 7.70053 17.75 7.71108 17.75C7.72164 17.75 7.73218 17.75 7.74269 17.75C7.7532 17.75 7.76369 17.75 7.77416 17.75C7.78462 17.75 7.79506 17.75 7.80548 17.75C7.8159 17.75 7.82629 17.75 7.83666 17.75C7.84703 17.75 7.85738 17.75 7.8677 17.75C7.87802 17.75 7.88832 17.75 7.8986 17.75C7.90888 17.75 7.91913 17.75 7.92936 17.75C7.93959 17.75 7.9498 17.75 7.95998 17.75C7.97017 17.75 7.98033 17.75 7.99046 17.75C8.0006 17.75 8.01072 17.75 8.02081 17.75C8.0309 17.75 8.04097 17.75 8.05101 17.75C8.06106 17.75 8.07108 17.75 8.08108 17.75C8.09108 17.75 8.10105 17.75 8.11101 17.75C8.12096 17.75 8.13089 17.75 8.1408 17.75C8.15071 17.75 8.16059 17.75 8.17045 17.75C8.18032 17.75 8.19016 17.75 8.19997 17.75C8.20979 17.75 8.21958 17.75 8.22935 17.75C8.23913 17.75 8.24887 17.75 8.2586 17.75C8.26833 17.75 8.27803 17.75 8.28771 17.75C8.29739 17.75 8.30705 17.75 8.31669 17.75C8.32632 17.75 8.33594 17.75 8.34553 17.75C8.35512 17.75 8.36469 17.75 8.37424 17.75C8.38378 17.75 8.39331 17.75 8.40281 17.75C8.41231 17.75 8.42179 17.75 8.43125 17.75C8.44071 17.75 8.45015 17.75 8.45956 17.75C8.46897 17.75 8.47837 17.75 8.48774 17.75C8.49711 17.75 8.50645 17.75 8.51578 17.75C8.5251 17.75 8.53441 17.75 8.54369 17.75C8.55297 17.75 8.56223 17.75 8.57147 17.75C8.58071 17.75 8.58992 17.75 8.59912 17.75C8.60831 17.75 8.61749 17.75 8.62664 17.75C8.63579 17.75 8.64492 17.75 8.65402 17.75C8.66313 17.75 8.67222 17.75 8.68128 17.75C8.69035 17.75 8.69939 17.75 8.70841 17.75C8.71743 17.75 8.72643 17.75 8.73541 17.75C8.74439 17.75 8.75335 17.75 8.76228 17.75C8.77122 17.75 8.78013 17.75 8.78903 17.75C8.79792 17.75 8.80679 17.75 8.81564 17.75C8.82449 17.75 8.83332 17.75 8.84213 17.75C8.85094 17.75 8.85972 17.75 8.86849 17.75C8.87725 17.75 8.886 17.75 8.89472 17.75C8.90345 17.75 8.91215 17.75 8.92083 17.75C8.92951 17.75 8.93817 17.75 8.94681 17.75C8.95545 17.75 8.96407 17.75 8.97267 17.75C8.98126 17.75 8.98984 17.75 8.9984 17.75C9.00695 17.75 9.01549 17.75 9.024 17.75C9.03252 17.75 9.04101 17.75 9.04949 17.75C9.05796 17.75 9.06641 17.75 9.07484 17.75C9.08327 17.75 9.09169 17.75 9.10008 17.75C9.10847 17.75 9.11684 17.75 9.12519 17.75C9.13354 17.75 9.14187 17.75 9.15018 17.75C9.15848 17.75 9.16677 17.75 9.17504 17.75C9.18331 17.75 9.19156 17.75 9.19979 17.75C9.20801 17.75 9.21622 17.75 9.22441 17.75C9.23259 17.75 9.24076 17.75 9.24891 17.75C9.25706 17.75 9.26518 17.75 9.27329 17.75C9.28139 17.75 9.28948 17.75 9.29755 17.75C9.30561 17.75 9.31366 17.75 9.32169 17.75C9.32971 17.75 9.33772 17.75 9.34571 17.75C9.35369 17.75 9.36166 17.75 9.36961 17.75C9.37755 17.75 9.38548 17.75 9.39339 17.75C9.4013 17.75 9.40919 17.75 9.41705 17.75C9.42492 17.75 9.43277 17.75 9.4406 17.75C9.44843 17.75 9.45624 17.75 9.46403 17.75C9.47182 17.75 9.47959 17.75 9.48734 17.75C9.49509 17.75 9.50282 17.75 9.51053 17.75C9.51824 17.75 9.52593 17.75 9.53361 17.75C9.54128 17.75 9.54893 17.75 9.55657 17.75C9.5642 17.75 9.57181 17.75 9.57941 17.75C9.58701 17.75 9.59458 17.75 9.60214 17.75C9.6097 17.75 9.61724 17.75 9.62475 17.75C9.63227 17.75 9.63977 17.75 9.64725 17.75C9.65473 17.75 9.6622 17.75 9.66964 17.75C9.67708 17.75 9.68451 17.75 9.69191 17.75C9.69932 17.75 9.7067 17.75 9.71407 17.75C9.72144 17.75 9.72879 17.75 9.73611 17.75C9.74344 17.75 9.75076 17.75 9.75805 17.75C9.76534 17.75 9.77261 17.75 9.77987 17.75C9.78712 17.75 9.79436 17.75 9.80158 17.75C9.80879 17.75 9.81599 17.75 9.82317 17.75C9.83035 17.75 9.83752 17.75 9.84466 17.75C9.8518 17.75 9.85893 17.75 9.86603 17.75C9.87314 17.75 9.88023 17.75 9.8873 17.75C9.89437 17.75 9.90142 17.75 9.90845 17.75C9.91549 17.75 9.9225 17.75 9.9295 17.75C9.9365 17.75 9.94348 17.75 9.95044 17.75C9.9574 17.75 9.96434 17.75 9.97126 17.75C9.97819 17.75 9.9851 17.75 9.99198 17.75C9.99887 17.75 10.0057 17.75 10.0126 17.75C10.0194 17.75 10.0263 17.75 10.0331 17.75C10.0399 17.75 10.0467 17.75 10.0535 17.75C10.0603 17.75 10.067 17.75 10.0738 17.75C10.0805 17.75 10.0873 17.75 10.094 17.75C10.1007 17.75 10.1074 17.75 10.114 17.75C10.1207 17.75 10.1274 17.75 10.134 17.75C10.1407 17.75 10.1473 17.75 10.1539 17.75C10.1605 17.75 10.1671 17.75 10.1736 17.75C10.1802 17.75 10.1868 17.75 10.1933 17.75C10.1998 17.75 10.2064 17.75 10.2129 17.75C10.2194 17.75 10.2258 17.75 10.2323 17.75C10.2388 17.75 10.2452 17.75 10.2517 17.75C10.2581 17.75 10.2645 17.75 10.2709 17.75C10.2773 17.75 10.2837 17.75 10.29 17.75C10.2964 17.75 10.3027 17.75 10.3091 17.75C10.3154 17.75 10.3217 17.75 10.328 17.75C10.3343 17.75 10.3406 17.75 10.3469 17.75C10.3531 17.75 10.3594 17.75 10.3656 17.75C10.3718 17.75 10.378 17.75 10.3842 17.75C10.3904 17.75 10.3966 17.75 10.4028 17.75C10.4089 17.75 10.4151 17.75 10.4212 17.75C10.4273 17.75 10.4334 17.75 10.4395 17.75C10.4456 17.75 10.4517 17.75 10.4578 17.75C10.4638 17.75 10.4699 17.75 10.4759 17.75C10.4819 17.75 10.4879 17.75 10.4939 17.75C10.4999 17.75 10.5059 17.75 10.5119 17.75C10.5178 17.75 10.5238 17.75 10.5297 17.75C10.5357 17.75 10.5416 17.75 10.5475 17.75C10.5534 17.75 10.5593 17.75 10.5651 17.75C10.571 17.75 10.5768 17.75 10.5827 17.75C10.5885 17.75 10.5943 17.75 10.6001 17.75C10.6059 17.75 10.6117 17.75 10.6175 17.75C10.6233 17.75 10.629 17.75 10.6348 17.75C10.6405 17.75 10.6462 17.75 10.6519 17.75C10.6577 17.75 10.6633 17.75 10.669 17.75C10.6747 17.75 10.6804 17.75 10.686 17.75C10.6917 17.75 10.6973 17.75 10.7029 17.75C10.7085 17.75 10.7141 17.75 10.7197 17.75C10.7253 17.75 10.7308 17.75 10.7364 17.75C10.742 17.75 10.7475 17.75 10.753 17.75C10.7585 17.75 10.764 17.75 10.7695 17.75C10.775 17.75 10.7805 17.75 10.786 17.75C10.7914 17.75 10.7969 17.75 10.8023 17.75C10.8077 17.75 10.8132 17.75 10.8186 17.75C10.824 17.75 10.8293 17.75 10.8347 17.75C10.8401 17.75 10.8454 17.75 10.8508 17.75C10.8561 17.75 10.8614 17.75 10.8668 17.75C10.8721 17.75 10.8774 17.75 10.8826 17.75C10.8879 17.75 10.8932 17.75 10.8984 17.75C10.9037 17.75 10.9089 17.75 10.9142 17.75C10.9194 17.75 10.9246 17.75 10.9298 17.75C10.935 17.75 10.9402 17.75 10.9453 17.75C10.9505 17.75 10.9556 17.75 10.9608 17.75C10.9659 17.75 10.971 17.75 10.9761 17.75C10.9812 17.75 10.9863 17.75 10.9914 17.75C10.9965 17.75 11.0015 17.75 11.0066 17.75C11.0116 17.75 11.0167 17.75 11.0217 17.75C11.0267 17.75 11.0317 17.75 11.0367 17.75C11.0417 17.75 11.0467 17.75 11.0517 17.75C11.0566 17.75 11.0616 17.75 11.0665 17.75C11.0714 17.75 11.0764 17.75 11.0813 17.75C11.0862 17.75 11.0911 17.75 11.0959 17.75C11.1008 17.75 11.1057 17.75 11.1105 17.75C11.1154 17.75 11.1202 17.75 11.1251 17.75C11.1299 17.75 11.1347 17.75 11.1395 17.75C11.1443 17.75 11.1491 17.75 11.1538 17.75C11.1586 17.75 11.1634 17.75 11.1681 17.75C11.1729 17.75 11.1776 17.75 11.1823 17.75C11.187 17.75 11.1917 17.75 11.1964 17.75C11.2011 17.75 11.2058 17.75 11.2104 17.75C11.2151 17.75 11.2197 17.75 11.2244 17.75C11.229 17.75 11.2336 17.75 11.2382 17.75C11.2428 17.75 11.2474 17.75 11.252 17.75C11.2566 17.75 11.2612 17.75 11.2657 17.75C11.2703 17.75 11.2748 17.75 11.2794 17.75C11.2839 17.75 11.2884 17.75 11.2929 17.75C11.2974 17.75 11.3019 17.75 11.3064 17.75C11.3109 17.75 11.3153 17.75 11.3198 17.75C11.3242 17.75 11.3287 17.75 11.3331 17.75C11.3375 17.75 11.3419 17.75 11.3463 17.75C11.3507 17.75 11.3551 17.75 11.3595 17.75C11.3639 17.75 11.3682 17.75 11.3726 17.75C11.3769 17.75 11.3813 17.75 11.3856 17.75C11.3899 17.75 11.3942 17.75 11.3985 17.75C11.4028 17.75 11.4071 17.75 11.4114 17.75C11.4157 17.75 11.4199 17.75 11.4242 17.75C11.4284 17.75 11.4327 17.75 11.4369 17.75C11.4411 17.75 11.4453 17.75 11.4495 17.75C11.4537 17.75 11.4579 17.75 11.4621 17.75C11.4663 17.75 11.4705 17.75 11.4746 17.75C11.4788 17.75 11.4829 17.75 11.487 17.75C11.4912 17.75 11.4953 17.75 11.4994 17.75C11.5035 17.75 11.5076 17.75 11.5117 17.75C11.5157 17.75 11.5198 17.75 11.5239 17.75C11.5279 17.75 11.532 17.75 11.536 17.75C11.54 17.75 11.5441 17.75 11.5481 17.75C11.5521 17.75 11.5561 17.75 11.5601 17.75C11.5641 17.75 11.568 17.75 11.572 17.75C11.576 17.75 11.5799 17.75 11.5839 17.75C11.5878 17.75 11.5917 17.75 11.5956 17.75C11.5996 17.75 11.6035 17.75 11.6074 17.75C11.6113 17.75 11.6151 17.75 11.619 17.75C11.6229 17.75 11.6267 17.75 11.6306 17.75C11.6344 17.75 11.6383 17.75 11.6421 17.75C11.6459 17.75 11.6498 17.75 11.6536 17.75C11.6574 17.75 11.6612 17.75 11.6649 17.75C11.6687 17.75 11.6725 17.75 11.6763 17.75C11.68 17.75 11.6838 17.75 11.6875 17.75C11.6913 17.75 11.695 17.75 11.6987 17.75C11.7024 17.75 11.7061 17.75 11.7098 17.75C11.7135 17.75 11.7172 17.75 11.7209 17.75C11.7246 17.75 11.7282 17.75 11.7319 17.75C11.7355 17.75 11.7392 17.75 11.7428 17.75C11.7464 17.75 11.7501 17.75 11.7537 17.75C11.7573 17.75 11.7609 17.75 11.7645 17.75C11.7681 17.75 11.7716 17.75 11.7752 17.75C11.7788 17.75 11.7823 17.75 11.7859 17.75C11.7894 17.75 11.793 17.75 11.7965 17.75C11.8 17.75 11.8035 17.75 11.8071 17.75C11.8106 17.75 11.8141 17.75 11.8175 17.75C11.821 17.75 11.8245 17.75 11.828 17.75C11.8314 17.75 11.8349 17.75 11.8383 17.75C11.8418 17.75 11.8452 17.75 11.8487 17.75C11.8521 17.75 11.8555 17.75 11.8589 17.75C11.8623 17.75 11.8657 17.75 11.8691 17.75C11.8725 17.75 11.8759 17.75 11.8792 17.75C11.8826 17.75 11.886 17.75 11.8893 17.75C11.8927 17.75 11.896 17.75 11.8993 17.75C11.9027 17.75 11.906 17.75 11.9093 17.75C11.9126 17.75 11.9159 17.75 11.9192 17.75C11.9225 17.75 11.9258 17.75 11.929 17.75C11.9323 17.75 11.9356 17.75 11.9388 17.75C11.9421 17.75 11.9453 17.75 11.9486 17.75C11.9518 17.75 11.955 17.75 11.9582 17.75C11.9615 17.75 11.9647 17.75 11.9679 17.75C11.9711 17.75 11.9743 17.75 11.9774 17.75C11.9806 17.75 11.9838 17.75 11.987 17.75C11.9901 17.75 11.9933 17.75 11.9964 17.75C11.9996 17.75 12.0027 17.75 12.0058 17.75C12.0089 17.75 12.0121 17.75 12.0152 17.75C12.0183 17.75 12.0214 17.75 12.0245 17.75C12.0276 17.75 12.0306 17.75 12.0337 17.75C12.0368 17.75 12.0399 17.75 12.0429 17.75C12.046 17.75 12.049 17.75 12.0521 17.75C12.0551 17.75 12.0581 17.75 12.0612 17.75C12.0642 17.75 12.0672 17.75 12.0702 17.75C12.0732 17.75 12.0762 17.75 12.0792 17.75C12.0822 17.75 12.0852 17.75 12.0881 17.75C12.0911 17.75 12.0941 17.75 12.097 17.75C12.1 17.75 12.1029 17.75 12.1059 17.75C12.1088 17.75 12.1117 17.75 12.1146 17.75C12.1176 17.75 12.1205 17.75 12.1234 17.75C12.1263 17.75 12.1292 17.75 12.1321 17.75C12.135 17.75 12.1379 17.75 12.1407 17.75C12.1436 17.75 12.1465 17.75 12.1493 17.75C12.1522 17.75 12.155 17.75 12.1579 17.75C12.1607 17.75 12.1636 17.75 12.1664 17.75C12.1692 17.75 12.172 17.75 12.1749 17.75C12.1777 17.75 12.1805 17.75 12.1833 17.75C12.1861 17.75 12.1889 17.75 12.1916 17.75C12.1944 17.75 12.1972 17.75 12.2 17.75C12.2027 17.75 12.2055 17.75 12.2082 17.75C12.211 17.75 12.2137 17.75 12.2165 17.75C12.2192 17.75 12.222 17.75 12.2247 17.75C12.2274 17.75 12.2301 17.75 12.2328 17.75C12.2355 17.75 12.2382 17.75 12.2409 17.75C12.2436 17.75 12.2463 17.75 12.249 17.75C12.2517 17.75 12.2543 17.75 12.257 17.75C12.2597 17.75 12.2623 17.75 12.265 17.75C12.2676 17.75 12.2703 17.75 12.2729 17.75C12.2756 17.75 12.2782 17.75 12.2808 17.75C12.2834 17.75 12.2861 17.75 12.2887 17.75C12.2913 17.75 12.2939 17.75 12.2965 17.75C12.2991 17.75 12.3017 17.75 12.3043 17.75C12.3068 17.75 12.3094 17.75 12.312 17.75C12.3146 17.75 12.3171 17.75 12.3197 17.75C12.3223 17.75 12.3248 17.75 12.3273 17.75C12.3299 17.75 12.3324 17.75 12.335 17.75C12.3375 17.75 12.34 17.75 12.3425 17.75C12.3451 17.75 12.3476 17.75 12.3501 17.75C12.3526 17.75 12.3551 17.75 12.3576 17.75C12.3601 17.75 12.3626 17.75 12.3651 17.75C12.3675 17.75 12.37 17.75 12.3725 17.75C12.375 17.75 12.3774 17.75 12.3799 17.75C12.3823 17.75 12.3848 17.75 12.3872 17.75C12.3897 17.75 12.3921 17.75 12.3946 17.75C12.397 17.75 12.3994 17.75 12.4019 17.75C12.4043 17.75 12.4067 17.75 12.4091 17.75C12.4115 17.75 12.4139 17.75 12.4163 17.75C12.4187 17.75 12.4211 17.75 12.4235 17.75C12.4259 17.75 12.4283 17.75 12.4307 17.75C12.4331 17.75 12.4354 17.75 12.4378 17.75C12.4402 17.75 12.4425 17.75 12.4449 17.75C12.4472 17.75 12.4496 17.75 12.4519 17.75C12.4543 17.75 12.4566 17.75 12.459 17.75C12.4613 17.75 12.4636 17.75 12.466 17.75C12.4683 17.75 12.4706 17.75 12.4729 17.75C12.4752 17.75 12.4776 17.75 12.4799 17.75C12.4822 17.75 12.4845 17.75 12.4868 17.75C12.4891 17.75 12.4913 17.75 12.4936 17.75C12.4959 17.75 12.4982 17.75 12.5005 17.75C12.5027 17.75 12.505 17.75 12.5073 17.75C12.5095 17.75 12.5118 17.75 12.5141 17.75C12.5163 17.75 12.5186 17.75 12.5208 17.75C12.5231 17.75 12.5253 17.75 12.5275 17.75C12.5298 17.75 12.532 17.75 12.5343 17.75C12.5365 17.75 12.5387 17.75 12.5409 17.75C12.5431 17.75 12.5454 17.75 12.5476 17.75C12.5498 17.75 12.552 17.75 12.5542 17.75C12.5564 17.75 12.5586 17.75 12.5608 17.75C12.563 17.75 12.5652 17.75 12.5674 17.75C12.5695 17.75 12.5717 17.75 12.5739 17.75C12.5761 17.75 12.5782 17.75 12.5804 17.75C12.5826 17.75 12.5847 17.75 12.5869 17.75C12.5891 17.75 12.5912 17.75 12.5934 17.75C12.5955 17.75 12.5977 17.75 12.5998 17.75C12.602 17.75 12.6041 17.75 12.6063 17.75C12.6084 17.75 12.6105 17.75 12.6127 17.75C12.6148 17.75 12.6169 17.75 12.619 17.75C12.6212 17.75 12.6233 17.75 12.6254 17.75C12.6275 17.75 12.6296 17.75 12.6317 17.75C12.6338 17.75 12.6359 17.75 12.638 17.75C12.6401 17.75 12.6422 17.75 12.6443 17.75C12.6464 17.75 12.6485 17.75 12.6506 17.75C12.6527 17.75 12.6548 17.75 12.6569 17.75C12.6589 17.75 12.661 17.75 12.6631 17.75C12.6652 17.75 12.6672 17.75 12.6693 17.75C12.6714 17.75 12.6734 17.75 12.6755 17.75C12.6776 17.75 12.6796 17.75 12.6817 17.75C12.6837 17.75 12.6858 17.75 12.6878 17.75C12.6899 17.75 12.6919 17.75 12.694 17.75C12.696 17.75 12.698 17.75 12.7001 17.75C12.7021 17.75 12.7042 17.75 12.7062 17.75C12.7082 17.75 12.7103 17.75 12.7123 17.75C12.7143 17.75 12.7163 17.75 12.7184 17.75C12.7204 17.75 12.7224 17.75 12.7244 17.75C12.7264 17.75 12.7284 17.75 12.7305 17.75C12.7325 17.75 12.7345 17.75 12.7365 17.75C12.7385 17.75 12.7405 17.75 12.7425 17.75C12.7445 17.75 12.7465 17.75 12.7485 17.75C12.7505 17.75 12.7525 17.75 12.7545 17.75C12.7565 17.75 12.7585 17.75 12.7604 17.75C12.7624 17.75 12.7644 17.75 12.7664 17.75C12.7684 17.75 12.7704 17.75 12.7723 17.75C12.7743 17.75 12.7763 17.75 12.7783 17.75C12.7803 17.75 12.7822 17.75 12.7842 17.75C12.7862 17.75 12.7881 17.75 12.7901 17.75C12.7921 17.75 12.794 17.75 12.796 17.75C12.798 17.75 12.7999 17.75 12.8019 17.75C12.8039 17.75 12.8058 17.75 12.8078 17.75C12.8097 17.75 12.8117 17.75 12.8136 17.75C12.8156 17.75 12.8175 17.75 12.8195 17.75C12.8214 17.75 12.8234 17.75 12.8253 17.75C12.8273 17.75 12.8292 17.75 12.8312 17.75C12.8331 17.75 12.8351 17.75 12.837 17.75C12.839 17.75 12.8409 17.75 12.8428 17.75C12.8448 17.75 12.8467 17.75 12.8487 17.75C12.8506 17.75 12.8525 17.75 12.8545 17.75C12.8564 17.75 12.8583 17.75 12.8603 17.75C12.8622 17.75 12.8641 17.75 12.8661 17.75C12.868 17.75 12.8699 17.75 12.8719 17.75C12.8738 17.75 12.8757 17.75 12.8776 17.75C12.8796 17.75 12.8815 17.75 12.8834 17.75C12.8853 17.75 12.8873 17.75 12.8892 17.75C12.8911 17.75 12.893 17.75 12.895 17.75C12.8969 17.75 12.8988 17.75 12.9007 17.75C12.9026 17.75 12.9046 17.75 12.9065 17.75C12.9084 17.75 12.9103 17.75 12.9122 17.75C12.9142 17.75 12.9161 17.75 12.918 17.75C12.9199 17.75 12.9218 17.75 12.9237 17.75C12.9257 17.75 12.9276 17.75 12.9295 17.75C12.9314 17.75 12.9333 17.75 12.9352 17.75C12.9372 17.75 12.9391 17.75 12.941 17.75C12.9429 17.75 12.9448 17.75 12.9467 17.75C12.9487 17.75 12.9506 17.75 12.9525 17.75C12.9544 17.75 12.9563 17.75 12.9582 17.75C12.9601 17.75 12.9621 17.75 12.964 17.75C12.9659 17.75 12.9678 17.75 12.9697 17.75C12.9716 17.75 12.9736 17.75 12.9755 17.75C12.9774 17.75 12.9793 17.75 12.9812 17.75C12.9831 17.75 12.9851 17.75 12.987 17.75C12.9889 17.75 12.9908 17.75 12.9927 17.75C12.9946 17.75 12.9966 17.75 12.9985 17.75C13.0004 17.75 13.0023 17.75 13.0042 17.75C13.0062 17.75 13.0081 17.75 13.01 17.75C13.0119 17.75 13.0138 17.75 13.0158 17.75C13.0177 17.75 13.0196 17.75 13.0215 17.75C13.0235 17.75 13.0254 17.75 13.0273 17.75C13.0292 17.75 13.0312 17.75 13.0331 17.75C13.035 17.75 13.037 17.75 13.0389 17.75C13.0408 17.75 13.0427 17.75 13.0447 17.75C13.0466 17.75 13.0485 17.75 13.0505 17.75C13.0524 17.75 13.0543 17.75 13.0563 17.75C13.0582 17.75 13.0601 17.75 13.0621 17.75C13.064 17.75 13.066 17.75 13.0679 17.75C13.0698 17.75 13.0718 17.75 13.0737 17.75C13.0757 17.75 13.0776 17.75 13.0796 17.75C13.0815 17.75 13.0834 17.75 13.0854 17.75C13.0873 17.75 13.0893 17.75 13.0912 17.75C13.0932 17.75 13.0952 17.75 13.0971 17.75C13.0991 17.75 13.101 17.75 13.103 17.75C13.1049 17.75 13.1069 17.75 13.1089 17.75C13.1108 17.75 13.1128 17.75 13.1147 17.75C13.1167 17.75 13.1187 17.75 13.1206 17.75C13.1226 17.75 13.1246 17.75 13.1266 17.75C13.1285 17.75 13.1305 17.75 13.1325 17.75C13.1345 17.75 13.1364 17.75 13.1384 17.75C13.1404 17.75 13.1424 17.75 13.1444 17.75C13.1463 17.75 13.1483 17.75 13.1503 17.75C13.1523 17.75 13.1543 17.75 13.1563 17.75C13.1583 17.75 13.1603 17.75 13.1623 17.75C13.1643 17.75 13.1663 17.75 13.1683 17.75C13.1703 17.75 13.1723 17.75 13.1743 17.75C13.1763 17.75 13.1783 17.75 13.1803 17.75C13.1823 17.75 13.1844 17.75 13.1864 17.75C13.1884 17.75 13.1904 17.75 13.1924 17.75C13.1945 17.75 13.1965 17.75 13.1985 17.75C13.2005 17.75 13.2026 17.75 13.2046 17.75C13.2066 17.75 13.2087 17.75 13.2107 17.75C13.2127 17.75 13.2148 17.75 13.2168 17.75C13.2189 17.75 13.2209 17.75 13.223 17.75C13.225 17.75 13.2271 17.75 13.2291 17.75C13.2312 17.75 13.2333 17.75 13.2353 17.75C13.2374 17.75 13.2394 17.75 13.2415 17.75C13.2436 17.75 13.2457 17.75 13.2477 17.75C13.2498 17.75 13.2519 17.75 13.254 17.75C13.256 17.75 13.2581 17.75 13.2602 17.75C13.2623 17.75 13.2644 17.75 13.2665 17.75C13.2686 17.75 13.2707 17.75 13.2728 17.75C13.2749 17.75 13.277 17.75 13.2791 17.75C13.2812 17.75 13.2833 17.75 13.2854 17.75C13.2876 17.75 13.2897 17.75 13.2918 17.75C13.2939 17.75 13.2961 17.75 13.2982 17.75C13.3003 17.75 13.3025 17.75 13.3046 17.75C13.3067 17.75 13.3089 17.75 13.311 17.75C13.3132 17.75 13.3153 17.75 13.3175 17.75C13.3196 17.75 13.3218 17.75 13.324 17.75C13.3261 17.75 13.3283 17.75 13.3304 17.75C13.3326 17.75 13.3348 17.75 13.337 17.75C13.3392 17.75 13.3413 17.75 13.3435 17.75C13.3457 17.75 13.3479 17.75 13.3501 17.75C13.3523 17.75 13.3545 17.75 13.3567 17.75C13.3589 17.75 13.3611 17.75 13.3633 17.75C13.3655 17.75 13.3677 17.75 13.37 17.75C13.3722 17.75 13.3744 17.75 13.3766 17.75C13.3789 17.75 13.3811 17.75 13.3834 17.75C13.3856 17.75 13.3878 17.75 13.3901 17.75C13.3923 17.75 13.3946 17.75 13.3968 17.75C13.3991 17.75 13.4014 17.75 13.4036 17.75C13.4059 17.75 13.4082 17.75 13.4105 17.75C13.4127 17.75 13.415 17.75 13.4173 17.75C13.4196 17.75 13.4219 17.75 13.4242 17.75C13.4265 17.75 13.4288 17.75 13.4311 17.75C13.4334 17.75 13.4357 17.75 13.438 17.75C13.4403 17.75 13.4427 17.75 13.445 17.75C13.4473 17.75 13.4496 17.75 13.452 17.75C13.4543 17.75 13.4567 17.75 13.459 17.75C13.4614 17.75 13.4637 17.75 13.4661 17.75C13.4684 17.75 13.4708 17.75 13.4732 17.75C13.4755 17.75 13.4779 17.75 13.4803 17.75C13.4827 17.75 13.4851 17.75 13.4875 17.75C13.4899 17.75 13.4923 17.75 13.4947 17.75C13.4971 17.75 13.4995 17.75 13.5019 17.75C13.5043 17.75 13.5067 17.75 13.5091 17.75C13.5116 17.75 13.514 17.75 13.5164 17.75C13.5189 17.75 13.5213 17.75 13.5238 17.75C13.5262 17.75 13.5287 17.75 13.5311 17.75C13.5336 17.75 13.5361 17.75 13.5385 17.75C13.541 17.75 13.5435 17.75 13.546 17.75C13.5485 17.75 13.551 17.75 13.5535 17.75C13.556 17.75 13.5585 17.75 13.561 17.75C13.5635 17.75 13.566 17.75 13.5685 17.75C13.571 17.75 13.5736 17.75 13.5761 17.75C13.5786 17.75 13.5812 17.75 13.5837 17.75C13.5863 17.75 13.5888 17.75 13.5914 17.75C13.5939 17.75 13.5965 17.75 13.5991 17.75C13.6017 17.75 13.6042 17.75 13.6068 17.75C13.6094 17.75 13.612 17.75 13.6146 17.75C13.6172 17.75 13.6198 17.75 13.6224 17.75C13.625 17.75 13.6277 17.75 13.6303 17.75C13.6329 17.75 13.6356 17.75 13.6382 17.75C13.6408 17.75 13.6435 17.75 13.6461 17.75C13.6488 17.75 13.6515 17.75 13.6541 17.75C13.6568 17.75 13.6595 17.75 13.6622 17.75C13.6648 17.75 13.6675 17.75 13.6702 17.75C13.6729 17.75 13.6756 17.75 13.6783 17.75C13.6811 17.75 13.6838 17.75 13.6865 17.75C13.6892 17.75 13.692 17.75 13.6947 17.75C13.6974 17.75 13.7002 17.75 13.7029 17.75C13.7057 17.75 13.7085 17.75 13.7112 17.75C13.714 17.75 13.7168 17.75 13.7196 17.75C13.7223 17.75 13.7251 17.75 13.7279 17.75C13.7307 17.75 13.7335 17.75 13.7364 17.75C13.7392 17.75 13.742 17.75 13.7448 17.75C13.7477 17.75 13.7505 17.75 13.7533 17.75C13.7562 17.75 13.759 17.75 13.7619 17.75C13.7648 17.75 13.7676 17.75 13.7705 17.75C13.7734 17.75 13.7763 17.75 13.7792 17.75C13.7821 17.75 13.785 17.75 13.7879 17.75C13.7908 17.75 13.7937 17.75 13.7966 17.75C13.7996 17.75 13.8025 17.75 13.8054 17.75C13.8084 17.75 13.8113 17.75 13.8143 17.75C13.8172 17.75 13.8202 17.75 13.8232 17.75V17V16.25C13.8202 16.25 13.8172 16.25 13.8143 16.25C13.8113 16.25 13.8084 16.25 13.8054 16.25C13.8025 16.25 13.7996 16.25 13.7966 16.25C13.7937 16.25 13.7908 16.25 13.7879 16.25C13.785 16.25 13.7821 16.25 13.7792 16.25C13.7763 16.25 13.7734 16.25 13.7705 16.25C13.7676 16.25 13.7648 16.25 13.7619 16.25C13.759 16.25 13.7562 16.25 13.7533 16.25C13.7505 16.25 13.7477 16.25 13.7448 16.25C13.742 16.25 13.7392 16.25 13.7364 16.25C13.7335 16.25 13.7307 16.25 13.7279 16.25C13.7251 16.25 13.7223 16.25 13.7196 16.25C13.7168 16.25 13.714 16.25 13.7112 16.25C13.7085 16.25 13.7057 16.25 13.7029 16.25C13.7002 16.25 13.6974 16.25 13.6947 16.25C13.692 16.25 13.6892 16.25 13.6865 16.25C13.6838 16.25 13.6811 16.25 13.6783 16.25C13.6756 16.25 13.6729 16.25 13.6702 16.25C13.6675 16.25 13.6648 16.25 13.6622 16.25C13.6595 16.25 13.6568 16.25 13.6541 16.25C13.6515 16.25 13.6488 16.25 13.6461 16.25C13.6435 16.25 13.6408 16.25 13.6382 16.25C13.6356 16.25 13.6329 16.25 13.6303 16.25C13.6277 16.25 13.625 16.25 13.6224 16.25C13.6198 16.25 13.6172 16.25 13.6146 16.25C13.612 16.25 13.6094 16.25 13.6068 16.25C13.6042 16.25 13.6017 16.25 13.5991 16.25C13.5965 16.25 13.5939 16.25 13.5914 16.25C13.5888 16.25 13.5863 16.25 13.5837 16.25C13.5812 16.25 13.5786 16.25 13.5761 16.25C13.5736 16.25 13.571 16.25 13.5685 16.25C13.566 16.25 13.5635 16.25 13.561 16.25C13.5585 16.25 13.556 16.25 13.5535 16.25C13.551 16.25 13.5485 16.25 13.546 16.25C13.5435 16.25 13.541 16.25 13.5385 16.25C13.5361 16.25 13.5336 16.25 13.5311 16.25C13.5287 16.25 13.5262 16.25 13.5238 16.25C13.5213 16.25 13.5189 16.25 13.5164 16.25C13.514 16.25 13.5116 16.25 13.5091 16.25C13.5067 16.25 13.5043 16.25 13.5019 16.25C13.4995 16.25 13.4971 16.25 13.4947 16.25C13.4923 16.25 13.4899 16.25 13.4875 16.25C13.4851 16.25 13.4827 16.25 13.4803 16.25C13.4779 16.25 13.4755 16.25 13.4732 16.25C13.4708 16.25 13.4684 16.25 13.4661 16.25C13.4637 16.25 13.4614 16.25 13.459 16.25C13.4567 16.25 13.4543 16.25 13.452 16.25C13.4496 16.25 13.4473 16.25 13.445 16.25C13.4427 16.25 13.4403 16.25 13.438 16.25C13.4357 16.25 13.4334 16.25 13.4311 16.25C13.4288 16.25 13.4265 16.25 13.4242 16.25C13.4219 16.25 13.4196 16.25 13.4173 16.25C13.415 16.25 13.4127 16.25 13.4105 16.25C13.4082 16.25 13.4059 16.25 13.4036 16.25C13.4014 16.25 13.3991 16.25 13.3968 16.25C13.3946 16.25 13.3923 16.25 13.3901 16.25C13.3878 16.25 13.3856 16.25 13.3834 16.25C13.3811 16.25 13.3789 16.25 13.3766 16.25C13.3744 16.25 13.3722 16.25 13.37 16.25C13.3677 16.25 13.3655 16.25 13.3633 16.25C13.3611 16.25 13.3589 16.25 13.3567 16.25C13.3545 16.25 13.3523 16.25 13.3501 16.25C13.3479 16.25 13.3457 16.25 13.3435 16.25C13.3413 16.25 13.3392 16.25 13.337 16.25C13.3348 16.25 13.3326 16.25 13.3304 16.25C13.3283 16.25 13.3261 16.25 13.324 16.25C13.3218 16.25 13.3196 16.25 13.3175 16.25C13.3153 16.25 13.3132 16.25 13.311 16.25C13.3089 16.25 13.3067 16.25 13.3046 16.25C13.3025 16.25 13.3003 16.25 13.2982 16.25C13.2961 16.25 13.2939 16.25 13.2918 16.25C13.2897 16.25 13.2876 16.25 13.2854 16.25C13.2833 16.25 13.2812 16.25 13.2791 16.25C13.277 16.25 13.2749 16.25 13.2728 16.25C13.2707 16.25 13.2686 16.25 13.2665 16.25C13.2644 16.25 13.2623 16.25 13.2602 16.25C13.2581 16.25 13.256 16.25 13.254 16.25C13.2519 16.25 13.2498 16.25 13.2477 16.25C13.2457 16.25 13.2436 16.25 13.2415 16.25C13.2394 16.25 13.2374 16.25 13.2353 16.25C13.2333 16.25 13.2312 16.25 13.2291 16.25C13.2271 16.25 13.225 16.25 13.223 16.25C13.2209 16.25 13.2189 16.25 13.2168 16.25C13.2148 16.25 13.2127 16.25 13.2107 16.25C13.2087 16.25 13.2066 16.25 13.2046 16.25C13.2026 16.25 13.2005 16.25 13.1985 16.25C13.1965 16.25 13.1945 16.25 13.1924 16.25C13.1904 16.25 13.1884 16.25 13.1864 16.25C13.1844 16.25 13.1823 16.25 13.1803 16.25C13.1783 16.25 13.1763 16.25 13.1743 16.25C13.1723 16.25 13.1703 16.25 13.1683 16.25C13.1663 16.25 13.1643 16.25 13.1623 16.25C13.1603 16.25 13.1583 16.25 13.1563 16.25C13.1543 16.25 13.1523 16.25 13.1503 16.25C13.1483 16.25 13.1463 16.25 13.1444 16.25C13.1424 16.25 13.1404 16.25 13.1384 16.25C13.1364 16.25 13.1345 16.25 13.1325 16.25C13.1305 16.25 13.1285 16.25 13.1266 16.25C13.1246 16.25 13.1226 16.25 13.1206 16.25C13.1187 16.25 13.1167 16.25 13.1147 16.25C13.1128 16.25 13.1108 16.25 13.1089 16.25C13.1069 16.25 13.1049 16.25 13.103 16.25C13.101 16.25 13.0991 16.25 13.0971 16.25C13.0952 16.25 13.0932 16.25 13.0912 16.25C13.0893 16.25 13.0873 16.25 13.0854 16.25C13.0834 16.25 13.0815 16.25 13.0796 16.25C13.0776 16.25 13.0757 16.25 13.0737 16.25C13.0718 16.25 13.0698 16.25 13.0679 16.25C13.066 16.25 13.064 16.25 13.0621 16.25C13.0601 16.25 13.0582 16.25 13.0563 16.25C13.0543 16.25 13.0524 16.25 13.0505 16.25C13.0485 16.25 13.0466 16.25 13.0447 16.25C13.0427 16.25 13.0408 16.25 13.0389 16.25C13.037 16.25 13.035 16.25 13.0331 16.25C13.0312 16.25 13.0292 16.25 13.0273 16.25C13.0254 16.25 13.0235 16.25 13.0215 16.25C13.0196 16.25 13.0177 16.25 13.0158 16.25C13.0138 16.25 13.0119 16.25 13.01 16.25C13.0081 16.25 13.0062 16.25 13.0042 16.25C13.0023 16.25 13.0004 16.25 12.9985 16.25C12.9966 16.25 12.9946 16.25 12.9927 16.25C12.9908 16.25 12.9889 16.25 12.987 16.25C12.9851 16.25 12.9831 16.25 12.9812 16.25C12.9793 16.25 12.9774 16.25 12.9755 16.25C12.9736 16.25 12.9716 16.25 12.9697 16.25C12.9678 16.25 12.9659 16.25 12.964 16.25C12.9621 16.25 12.9601 16.25 12.9582 16.25C12.9563 16.25 12.9544 16.25 12.9525 16.25C12.9506 16.25 12.9487 16.25 12.9467 16.25C12.9448 16.25 12.9429 16.25 12.941 16.25C12.9391 16.25 12.9372 16.25 12.9352 16.25C12.9333 16.25 12.9314 16.25 12.9295 16.25C12.9276 16.25 12.9257 16.25 12.9237 16.25C12.9218 16.25 12.9199 16.25 12.918 16.25C12.9161 16.25 12.9142 16.25 12.9122 16.25C12.9103 16.25 12.9084 16.25 12.9065 16.25C12.9046 16.25 12.9026 16.25 12.9007 16.25C12.8988 16.25 12.8969 16.25 12.895 16.25C12.893 16.25 12.8911 16.25 12.8892 16.25C12.8873 16.25 12.8853 16.25 12.8834 16.25C12.8815 16.25 12.8796 16.25 12.8776 16.25C12.8757 16.25 12.8738 16.25 12.8719 16.25C12.8699 16.25 12.868 16.25 12.8661 16.25C12.8641 16.25 12.8622 16.25 12.8603 16.25C12.8583 16.25 12.8564 16.25 12.8545 16.25C12.8525 16.25 12.8506 16.25 12.8487 16.25C12.8467 16.25 12.8448 16.25 12.8428 16.25C12.8409 16.25 12.839 16.25 12.837 16.25C12.8351 16.25 12.8331 16.25 12.8312 16.25C12.8292 16.25 12.8273 16.25 12.8253 16.25C12.8234 16.25 12.8214 16.25 12.8195 16.25C12.8175 16.25 12.8156 16.25 12.8136 16.25C12.8117 16.25 12.8097 16.25 12.8078 16.25C12.8058 16.25 12.8039 16.25 12.8019 16.25C12.7999 16.25 12.798 16.25 12.796 16.25C12.794 16.25 12.7921 16.25 12.7901 16.25C12.7881 16.25 12.7862 16.25 12.7842 16.25C12.7822 16.25 12.7803 16.25 12.7783 16.25C12.7763 16.25 12.7743 16.25 12.7723 16.25C12.7704 16.25 12.7684 16.25 12.7664 16.25C12.7644 16.25 12.7624 16.25 12.7604 16.25C12.7585 16.25 12.7565 16.25 12.7545 16.25C12.7525 16.25 12.7505 16.25 12.7485 16.25C12.7465 16.25 12.7445 16.25 12.7425 16.25C12.7405 16.25 12.7385 16.25 12.7365 16.25C12.7345 16.25 12.7325 16.25 12.7305 16.25C12.7284 16.25 12.7264 16.25 12.7244 16.25C12.7224 16.25 12.7204 16.25 12.7184 16.25C12.7163 16.25 12.7143 16.25 12.7123 16.25C12.7103 16.25 12.7082 16.25 12.7062 16.25C12.7042 16.25 12.7021 16.25 12.7001 16.25C12.698 16.25 12.696 16.25 12.694 16.25C12.6919 16.25 12.6899 16.25 12.6878 16.25C12.6858 16.25 12.6837 16.25 12.6817 16.25C12.6796 16.25 12.6776 16.25 12.6755 16.25C12.6734 16.25 12.6714 16.25 12.6693 16.25C12.6672 16.25 12.6652 16.25 12.6631 16.25C12.661 16.25 12.6589 16.25 12.6569 16.25C12.6548 16.25 12.6527 16.25 12.6506 16.25C12.6485 16.25 12.6464 16.25 12.6443 16.25C12.6422 16.25 12.6401 16.25 12.638 16.25C12.6359 16.25 12.6338 16.25 12.6317 16.25C12.6296 16.25 12.6275 16.25 12.6254 16.25C12.6233 16.25 12.6212 16.25 12.619 16.25C12.6169 16.25 12.6148 16.25 12.6127 16.25C12.6105 16.25 12.6084 16.25 12.6063 16.25C12.6041 16.25 12.602 16.25 12.5998 16.25C12.5977 16.25 12.5955 16.25 12.5934 16.25C12.5912 16.25 12.5891 16.25 12.5869 16.25C12.5847 16.25 12.5826 16.25 12.5804 16.25C12.5782 16.25 12.5761 16.25 12.5739 16.25C12.5717 16.25 12.5695 16.25 12.5674 16.25C12.5652 16.25 12.563 16.25 12.5608 16.25C12.5586 16.25 12.5564 16.25 12.5542 16.25C12.552 16.25 12.5498 16.25 12.5476 16.25C12.5454 16.25 12.5431 16.25 12.5409 16.25C12.5387 16.25 12.5365 16.25 12.5343 16.25C12.532 16.25 12.5298 16.25 12.5275 16.25C12.5253 16.25 12.5231 16.25 12.5208 16.25C12.5186 16.25 12.5163 16.25 12.5141 16.25C12.5118 16.25 12.5095 16.25 12.5073 16.25C12.505 16.25 12.5027 16.25 12.5005 16.25C12.4982 16.25 12.4959 16.25 12.4936 16.25C12.4913 16.25 12.4891 16.25 12.4868 16.25C12.4845 16.25 12.4822 16.25 12.4799 16.25C12.4776 16.25 12.4752 16.25 12.4729 16.25C12.4706 16.25 12.4683 16.25 12.466 16.25C12.4636 16.25 12.4613 16.25 12.459 16.25C12.4566 16.25 12.4543 16.25 12.4519 16.25C12.4496 16.25 12.4472 16.25 12.4449 16.25C12.4425 16.25 12.4402 16.25 12.4378 16.25C12.4354 16.25 12.4331 16.25 12.4307 16.25C12.4283 16.25 12.4259 16.25 12.4235 16.25C12.4211 16.25 12.4187 16.25 12.4163 16.25C12.4139 16.25 12.4115 16.25 12.4091 16.25C12.4067 16.25 12.4043 16.25 12.4019 16.25C12.3994 16.25 12.397 16.25 12.3946 16.25C12.3921 16.25 12.3897 16.25 12.3872 16.25C12.3848 16.25 12.3823 16.25 12.3799 16.25C12.3774 16.25 12.375 16.25 12.3725 16.25C12.37 16.25 12.3675 16.25 12.3651 16.25C12.3626 16.25 12.3601 16.25 12.3576 16.25C12.3551 16.25 12.3526 16.25 12.3501 16.25C12.3476 16.25 12.3451 16.25 12.3425 16.25C12.34 16.25 12.3375 16.25 12.335 16.25C12.3324 16.25 12.3299 16.25 12.3273 16.25C12.3248 16.25 12.3223 16.25 12.3197 16.25C12.3171 16.25 12.3146 16.25 12.312 16.25C12.3094 16.25 12.3068 16.25 12.3043 16.25C12.3017 16.25 12.2991 16.25 12.2965 16.25C12.2939 16.25 12.2913 16.25 12.2887 16.25C12.2861 16.25 12.2834 16.25 12.2808 16.25C12.2782 16.25 12.2756 16.25 12.2729 16.25C12.2703 16.25 12.2676 16.25 12.265 16.25C12.2623 16.25 12.2597 16.25 12.257 16.25C12.2543 16.25 12.2517 16.25 12.249 16.25C12.2463 16.25 12.2436 16.25 12.2409 16.25C12.2382 16.25 12.2355 16.25 12.2328 16.25C12.2301 16.25 12.2274 16.25 12.2247 16.25C12.222 16.25 12.2192 16.25 12.2165 16.25C12.2137 16.25 12.211 16.25 12.2082 16.25C12.2055 16.25 12.2027 16.25 12.2 16.25C12.1972 16.25 12.1944 16.25 12.1916 16.25C12.1889 16.25 12.1861 16.25 12.1833 16.25C12.1805 16.25 12.1777 16.25 12.1749 16.25C12.172 16.25 12.1692 16.25 12.1664 16.25C12.1636 16.25 12.1607 16.25 12.1579 16.25C12.155 16.25 12.1522 16.25 12.1493 16.25C12.1465 16.25 12.1436 16.25 12.1407 16.25C12.1379 16.25 12.135 16.25 12.1321 16.25C12.1292 16.25 12.1263 16.25 12.1234 16.25C12.1205 16.25 12.1176 16.25 12.1146 16.25C12.1117 16.25 12.1088 16.25 12.1059 16.25C12.1029 16.25 12.1 16.25 12.097 16.25C12.0941 16.25 12.0911 16.25 12.0881 16.25C12.0852 16.25 12.0822 16.25 12.0792 16.25C12.0762 16.25 12.0732 16.25 12.0702 16.25C12.0672 16.25 12.0642 16.25 12.0612 16.25C12.0581 16.25 12.0551 16.25 12.0521 16.25C12.049 16.25 12.046 16.25 12.0429 16.25C12.0399 16.25 12.0368 16.25 12.0337 16.25C12.0306 16.25 12.0276 16.25 12.0245 16.25C12.0214 16.25 12.0183 16.25 12.0152 16.25C12.0121 16.25 12.0089 16.25 12.0058 16.25C12.0027 16.25 11.9996 16.25 11.9964 16.25C11.9933 16.25 11.9901 16.25 11.987 16.25C11.9838 16.25 11.9806 16.25 11.9774 16.25C11.9743 16.25 11.9711 16.25 11.9679 16.25C11.9647 16.25 11.9615 16.25 11.9582 16.25C11.955 16.25 11.9518 16.25 11.9486 16.25C11.9453 16.25 11.9421 16.25 11.9388 16.25C11.9356 16.25 11.9323 16.25 11.929 16.25C11.9258 16.25 11.9225 16.25 11.9192 16.25C11.9159 16.25 11.9126 16.25 11.9093 16.25C11.906 16.25 11.9027 16.25 11.8993 16.25C11.896 16.25 11.8927 16.25 11.8893 16.25C11.886 16.25 11.8826 16.25 11.8792 16.25C11.8759 16.25 11.8725 16.25 11.8691 16.25C11.8657 16.25 11.8623 16.25 11.8589 16.25C11.8555 16.25 11.8521 16.25 11.8487 16.25C11.8452 16.25 11.8418 16.25 11.8383 16.25C11.8349 16.25 11.8314 16.25 11.828 16.25C11.8245 16.25 11.821 16.25 11.8175 16.25C11.8141 16.25 11.8106 16.25 11.8071 16.25C11.8035 16.25 11.8 16.25 11.7965 16.25C11.793 16.25 11.7894 16.25 11.7859 16.25C11.7823 16.25 11.7788 16.25 11.7752 16.25C11.7716 16.25 11.7681 16.25 11.7645 16.25C11.7609 16.25 11.7573 16.25 11.7537 16.25C11.7501 16.25 11.7464 16.25 11.7428 16.25C11.7392 16.25 11.7355 16.25 11.7319 16.25C11.7282 16.25 11.7246 16.25 11.7209 16.25C11.7172 16.25 11.7135 16.25 11.7098 16.25C11.7061 16.25 11.7024 16.25 11.6987 16.25C11.695 16.25 11.6913 16.25 11.6875 16.25C11.6838 16.25 11.68 16.25 11.6763 16.25C11.6725 16.25 11.6687 16.25 11.6649 16.25C11.6612 16.25 11.6574 16.25 11.6536 16.25C11.6498 16.25 11.6459 16.25 11.6421 16.25C11.6383 16.25 11.6344 16.25 11.6306 16.25C11.6267 16.25 11.6229 16.25 11.619 16.25C11.6151 16.25 11.6113 16.25 11.6074 16.25C11.6035 16.25 11.5996 16.25 11.5956 16.25C11.5917 16.25 11.5878 16.25 11.5839 16.25C11.5799 16.25 11.576 16.25 11.572 16.25C11.568 16.25 11.5641 16.25 11.5601 16.25C11.5561 16.25 11.5521 16.25 11.5481 16.25C11.5441 16.25 11.54 16.25 11.536 16.25C11.532 16.25 11.5279 16.25 11.5239 16.25C11.5198 16.25 11.5157 16.25 11.5117 16.25C11.5076 16.25 11.5035 16.25 11.4994 16.25C11.4953 16.25 11.4912 16.25 11.487 16.25C11.4829 16.25 11.4788 16.25 11.4746 16.25C11.4705 16.25 11.4663 16.25 11.4621 16.25C11.4579 16.25 11.4537 16.25 11.4495 16.25C11.4453 16.25 11.4411 16.25 11.4369 16.25C11.4327 16.25 11.4284 16.25 11.4242 16.25C11.4199 16.25 11.4157 16.25 11.4114 16.25C11.4071 16.25 11.4028 16.25 11.3985 16.25C11.3942 16.25 11.3899 16.25 11.3856 16.25C11.3813 16.25 11.3769 16.25 11.3726 16.25C11.3682 16.25 11.3639 16.25 11.3595 16.25C11.3551 16.25 11.3507 16.25 11.3463 16.25C11.3419 16.25 11.3375 16.25 11.3331 16.25C11.3287 16.25 11.3242 16.25 11.3198 16.25C11.3153 16.25 11.3109 16.25 11.3064 16.25C11.3019 16.25 11.2974 16.25 11.2929 16.25C11.2884 16.25 11.2839 16.25 11.2794 16.25C11.2748 16.25 11.2703 16.25 11.2657 16.25C11.2612 16.25 11.2566 16.25 11.252 16.25C11.2474 16.25 11.2428 16.25 11.2382 16.25C11.2336 16.25 11.229 16.25 11.2244 16.25C11.2197 16.25 11.2151 16.25 11.2104 16.25C11.2058 16.25 11.2011 16.25 11.1964 16.25C11.1917 16.25 11.187 16.25 11.1823 16.25C11.1776 16.25 11.1729 16.25 11.1681 16.25C11.1634 16.25 11.1586 16.25 11.1538 16.25C11.1491 16.25 11.1443 16.25 11.1395 16.25C11.1347 16.25 11.1299 16.25 11.1251 16.25C11.1202 16.25 11.1154 16.25 11.1105 16.25C11.1057 16.25 11.1008 16.25 11.0959 16.25C11.0911 16.25 11.0862 16.25 11.0813 16.25C11.0764 16.25 11.0714 16.25 11.0665 16.25C11.0616 16.25 11.0566 16.25 11.0517 16.25C11.0467 16.25 11.0417 16.25 11.0367 16.25C11.0317 16.25 11.0267 16.25 11.0217 16.25C11.0167 16.25 11.0116 16.25 11.0066 16.25C11.0015 16.25 10.9965 16.25 10.9914 16.25C10.9863 16.25 10.9812 16.25 10.9761 16.25C10.971 16.25 10.9659 16.25 10.9608 16.25C10.9556 16.25 10.9505 16.25 10.9453 16.25C10.9402 16.25 10.935 16.25 10.9298 16.25C10.9246 16.25 10.9194 16.25 10.9142 16.25C10.9089 16.25 10.9037 16.25 10.8984 16.25C10.8932 16.25 10.8879 16.25 10.8826 16.25C10.8774 16.25 10.8721 16.25 10.8668 16.25C10.8614 16.25 10.8561 16.25 10.8508 16.25C10.8454 16.25 10.8401 16.25 10.8347 16.25C10.8293 16.25 10.824 16.25 10.8186 16.25C10.8132 16.25 10.8077 16.25 10.8023 16.25C10.7969 16.25 10.7914 16.25 10.786 16.25C10.7805 16.25 10.775 16.25 10.7695 16.25C10.764 16.25 10.7585 16.25 10.753 16.25C10.7475 16.25 10.742 16.25 10.7364 16.25C10.7308 16.25 10.7253 16.25 10.7197 16.25C10.7141 16.25 10.7085 16.25 10.7029 16.25C10.6973 16.25 10.6917 16.25 10.686 16.25C10.6804 16.25 10.6747 16.25 10.669 16.25C10.6633 16.25 10.6577 16.25 10.6519 16.25C10.6462 16.25 10.6405 16.25 10.6348 16.25C10.629 16.25 10.6233 16.25 10.6175 16.25C10.6117 16.25 10.6059 16.25 10.6001 16.25C10.5943 16.25 10.5885 16.25 10.5827 16.25C10.5768 16.25 10.571 16.25 10.5651 16.25C10.5593 16.25 10.5534 16.25 10.5475 16.25C10.5416 16.25 10.5357 16.25 10.5297 16.25C10.5238 16.25 10.5178 16.25 10.5119 16.25C10.5059 16.25 10.4999 16.25 10.4939 16.25C10.4879 16.25 10.4819 16.25 10.4759 16.25C10.4699 16.25 10.4638 16.25 10.4578 16.25C10.4517 16.25 10.4456 16.25 10.4395 16.25C10.4334 16.25 10.4273 16.25 10.4212 16.25C10.4151 16.25 10.4089 16.25 10.4028 16.25C10.3966 16.25 10.3904 16.25 10.3842 16.25C10.378 16.25 10.3718 16.25 10.3656 16.25C10.3594 16.25 10.3531 16.25 10.3469 16.25C10.3406 16.25 10.3343 16.25 10.328 16.25C10.3217 16.25 10.3154 16.25 10.3091 16.25C10.3027 16.25 10.2964 16.25 10.29 16.25C10.2837 16.25 10.2773 16.25 10.2709 16.25C10.2645 16.25 10.2581 16.25 10.2517 16.25C10.2452 16.25 10.2388 16.25 10.2323 16.25C10.2258 16.25 10.2194 16.25 10.2129 16.25C10.2064 16.25 10.1998 16.25 10.1933 16.25C10.1868 16.25 10.1802 16.25 10.1736 16.25C10.1671 16.25 10.1605 16.25 10.1539 16.25C10.1473 16.25 10.1407 16.25 10.134 16.25C10.1274 16.25 10.1207 16.25 10.114 16.25C10.1074 16.25 10.1007 16.25 10.094 16.25C10.0873 16.25 10.0805 16.25 10.0738 16.25C10.067 16.25 10.0603 16.25 10.0535 16.25C10.0467 16.25 10.0399 16.25 10.0331 16.25C10.0263 16.25 10.0194 16.25 10.0126 16.25C10.0057 16.25 9.99887 16.25 9.99198 16.25C9.9851 16.25 9.97819 16.25 9.97126 16.25C9.96434 16.25 9.9574 16.25 9.95044 16.25C9.94348 16.25 9.9365 16.25 9.9295 16.25C9.9225 16.25 9.91549 16.25 9.90845 16.25C9.90142 16.25 9.89437 16.25 9.8873 16.25C9.88023 16.25 9.87314 16.25 9.86603 16.25C9.85893 16.25 9.8518 16.25 9.84466 16.25C9.83752 16.25 9.83035 16.25 9.82317 16.25C9.81599 16.25 9.80879 16.25 9.80158 16.25C9.79436 16.25 9.78712 16.25 9.77987 16.25C9.77261 16.25 9.76534 16.25 9.75805 16.25C9.75076 16.25 9.74344 16.25 9.73611 16.25C9.72879 16.25 9.72144 16.25 9.71407 16.25C9.7067 16.25 9.69932 16.25 9.69191 16.25C9.68451 16.25 9.67708 16.25 9.66964 16.25C9.6622 16.25 9.65473 16.25 9.64725 16.25C9.63977 16.25 9.63227 16.25 9.62475 16.25C9.61724 16.25 9.6097 16.25 9.60214 16.25C9.59458 16.25 9.58701 16.25 9.57941 16.25C9.57181 16.25 9.5642 16.25 9.55657 16.25C9.54893 16.25 9.54128 16.25 9.53361 16.25C9.52593 16.25 9.51824 16.25 9.51053 16.25C9.50282 16.25 9.49509 16.25 9.48734 16.25C9.47959 16.25 9.47182 16.25 9.46403 16.25C9.45624 16.25 9.44843 16.25 9.4406 16.25C9.43277 16.25 9.42492 16.25 9.41705 16.25C9.40919 16.25 9.4013 16.25 9.39339 16.25C9.38548 16.25 9.37755 16.25 9.36961 16.25C9.36166 16.25 9.35369 16.25 9.34571 16.25C9.33772 16.25 9.32971 16.25 9.32169 16.25C9.31366 16.25 9.30561 16.25 9.29755 16.25C9.28948 16.25 9.28139 16.25 9.27329 16.25C9.26518 16.25 9.25706 16.25 9.24891 16.25C9.24076 16.25 9.23259 16.25 9.22441 16.25C9.21622 16.25 9.20801 16.25 9.19979 16.25C9.19156 16.25 9.18331 16.25 9.17504 16.25C9.16677 16.25 9.15848 16.25 9.15018 16.25C9.14187 16.25 9.13354 16.25 9.12519 16.25C9.11684 16.25 9.10847 16.25 9.10008 16.25C9.09169 16.25 9.08327 16.25 9.07484 16.25C9.06641 16.25 9.05796 16.25 9.04949 16.25C9.04101 16.25 9.03252 16.25 9.024 16.25C9.01549 16.25 9.00695 16.25 8.9984 16.25C8.98984 16.25 8.98126 16.25 8.97267 16.25C8.96407 16.25 8.95545 16.25 8.94681 16.25C8.93817 16.25 8.92951 16.25 8.92083 16.25C8.91215 16.25 8.90345 16.25 8.89472 16.25C8.886 16.25 8.87725 16.25 8.86849 16.25C8.85972 16.25 8.85094 16.25 8.84213 16.25C8.83332 16.25 8.82449 16.25 8.81564 16.25C8.80679 16.25 8.79792 16.25 8.78903 16.25C8.78013 16.25 8.77122 16.25 8.76228 16.25C8.75335 16.25 8.74439 16.25 8.73541 16.25C8.72643 16.25 8.71743 16.25 8.70841 16.25C8.69939 16.25 8.69035 16.25 8.68128 16.25C8.67222 16.25 8.66313 16.25 8.65402 16.25C8.64492 16.25 8.63579 16.25 8.62664 16.25C8.61749 16.25 8.60831 16.25 8.59912 16.25C8.58992 16.25 8.58071 16.25 8.57147 16.25C8.56223 16.25 8.55297 16.25 8.54369 16.25C8.53441 16.25 8.5251 16.25 8.51578 16.25C8.50645 16.25 8.49711 16.25 8.48774 16.25C8.47837 16.25 8.46897 16.25 8.45956 16.25C8.45015 16.25 8.44071 16.25 8.43125 16.25C8.42179 16.25 8.41231 16.25 8.40281 16.25C8.39331 16.25 8.38378 16.25 8.37424 16.25C8.36469 16.25 8.35512 16.25 8.34553 16.25C8.33594 16.25 8.32632 16.25 8.31669 16.25C8.30705 16.25 8.29739 16.25 8.28771 16.25C8.27803 16.25 8.26833 16.25 8.2586 16.25C8.24887 16.25 8.23913 16.25 8.22935 16.25C8.21958 16.25 8.20979 16.25 8.19997 16.25C8.19016 16.25 8.18032 16.25 8.17045 16.25C8.16059 16.25 8.15071 16.25 8.1408 16.25C8.13089 16.25 8.12096 16.25 8.11101 16.25C8.10105 16.25 8.09108 16.25 8.08108 16.25C8.07108 16.25 8.06106 16.25 8.05101 16.25C8.04097 16.25 8.0309 16.25 8.02081 16.25C8.01072 16.25 8.0006 16.25 7.99046 16.25C7.98033 16.25 7.97017 16.25 7.95998 16.25C7.9498 16.25 7.93959 16.25 7.92936 16.25C7.91913 16.25 7.90888 16.25 7.8986 16.25C7.88832 16.25 7.87802 16.25 7.8677 16.25C7.85738 16.25 7.84703 16.25 7.83666 16.25C7.82629 16.25 7.8159 16.25 7.80548 16.25C7.79506 16.25 7.78462 16.25 7.77416 16.25C7.76369 16.25 7.7532 16.25 7.74269 16.25C7.73218 16.25 7.72164 16.25 7.71108 16.25C7.70053 16.25 7.68994 16.25 7.67934 16.25C7.66873 16.25 7.6581 16.25 7.64744 16.25C7.63679 16.25 7.62611 16.25 7.61541 16.25C7.60471 16.25 7.59398 16.25 7.58323 16.25C7.57248 16.25 7.56171 16.25 7.55091 16.25C7.54011 16.25 7.52929 16.25 7.51845 16.25C7.5076 16.25 7.49673 16.25 7.48583 16.25C7.47494 16.25 7.46402 16.25 7.45308 16.25C7.44214 16.25 7.43117 16.25 7.42018 16.25C7.40919 16.25 7.39817 16.25 7.38713 16.25C7.37609 16.25 7.36503 16.25 7.35394 16.25C7.34285 16.25 7.33174 16.25 7.3206 16.25C7.30946 16.25 7.2983 16.25 7.28711 16.25C7.27592 16.25 7.26471 16.25 7.25348 16.25C7.24224 16.25 7.23098 16.25 7.21969 16.25C7.20841 16.25 7.1971 16.25 7.18576 16.25C7.17443 16.25 7.16307 16.25 7.15168 16.25C7.1403 16.25 7.12889 16.25 7.11746 16.25C7.10602 16.25 7.09456 16.25 7.08308 16.25C7.0716 16.25 7.06009 16.25 7.04855 16.25V17ZM19 4.80952L19.517 4.26621L15.5137 0.456682L14.9967 1L14.4797 1.54332L18.483 5.35284L19 4.80952ZM19 4.80952L18.483 4.26621L14.4797 8.07573L14.9967 8.61905L15.5137 9.16237L19.517 5.35284L19 4.80952Z" fill="white"/>
</svg>
