<svg width="20" height="18" viewBox="0 0 20 18" fill="none" xmlns="http://www.w3.org/2000/svg">
<path d="M1 4.80952L0.482985 5.35284C0.334211 5.21127 0.25 5.01489 0.25 4.80952C0.25 4.60416 0.334211 4.40778 0.482985 4.26621L1 4.80952ZM4.48631 0.456682C4.78637 0.171142 5.2611 0.182918 5.54664 0.482984C5.83218 0.78305 5.8204 1.25778 5.52034 1.54332L4.48631 0.456682ZM5.52034 8.07573C5.8204 8.36127 5.83218 8.836 5.54664 9.13606C5.2611 9.43613 4.78637 9.44791 4.48631 9.16237L5.52034 8.07573ZM1 4.80952V4.05952H12.9514V4.80952V5.55952H1V4.80952ZM12.9514 4.80952V4.05952C15.1732 4.05952 16.8936 4.90677 18.0503 6.21816C19.1945 7.51531 19.75 9.2227 19.75 10.9048C19.75 12.5868 19.1945 14.2942 18.0503 15.5914C16.8936 16.9028 15.1732 17.75 12.9514 17.75V17V16.25C14.7621 16.25 16.066 15.5734 16.9254 14.5991C17.7974 13.6106 18.25 12.2703 18.25 10.9048C18.25 9.53921 17.7974 8.19897 16.9254 7.21042C16.066 6.23609 14.7621 5.55952 12.9514 5.55952V4.80952ZM12.9514 17V17.75C12.9399 17.75 12.9284 17.75 12.9169 17.75C12.9054 17.75 12.894 17.75 12.8825 17.75C12.8711 17.75 12.8597 17.75 12.8483 17.75C12.8369 17.75 12.8256 17.75 12.8142 17.75C12.8029 17.75 12.7916 17.75 12.7803 17.75C12.769 17.75 12.7578 17.75 12.7465 17.75C12.7353 17.75 12.7241 17.75 12.7129 17.75C12.7017 17.75 12.6905 17.75 12.6794 17.75C12.6683 17.75 12.6572 17.75 12.6461 17.75C12.635 17.75 12.6239 17.75 12.6129 17.75C12.6018 17.75 12.5908 17.75 12.5798 17.75C12.5688 17.75 12.5579 17.75 12.5469 17.75C12.536 17.75 12.5251 17.75 12.5142 17.75C12.5033 17.75 12.4924 17.75 12.4816 17.75C12.4707 17.75 12.4599 17.75 12.4491 17.75C12.4383 17.75 12.4275 17.75 12.4168 17.75C12.406 17.75 12.3953 17.75 12.3846 17.75C12.3739 17.75 12.3632 17.75 12.3526 17.75C12.3419 17.75 12.3313 17.75 12.3207 17.75C12.3101 17.75 12.2995 17.75 12.2889 17.75C12.2784 17.75 12.2678 17.75 12.2573 17.75C12.2468 17.75 12.2363 17.75 12.2258 17.75C12.2154 17.75 12.2049 17.75 12.1945 17.75C12.1841 17.75 12.1737 17.75 12.1633 17.75C12.153 17.75 12.1426 17.75 12.1323 17.75C12.122 17.75 12.1117 17.75 12.1014 17.75C12.0911 17.75 12.0809 17.75 12.0706 17.75C12.0604 17.75 12.0502 17.75 12.04 17.75C12.0298 17.75 12.0197 17.75 12.0095 17.75C11.9994 17.75 11.9893 17.75 11.9792 17.75C11.9691 17.75 11.959 17.75 11.949 17.75C11.9389 17.75 11.9289 17.75 11.9189 17.75C11.9089 17.75 11.8989 17.75 11.889 17.75C11.879 17.75 11.8691 17.75 11.8592 17.75C11.8493 17.75 11.8394 17.75 11.8295 17.75C11.8197 17.75 11.8098 17.75 11.8 17.75C11.7902 17.75 11.7804 17.75 11.7706 17.75C11.7609 17.75 11.7511 17.75 11.7414 17.75C11.7317 17.75 11.722 17.75 11.7123 17.75C11.7026 17.75 11.6929 17.75 11.6833 17.75C11.6737 17.75 11.6641 17.75 11.6545 17.75C11.6449 17.75 11.6353 17.75 11.6258 17.75C11.6162 17.75 11.6067 17.75 11.5972 17.75C11.5877 17.75 11.5782 17.75 11.5687 17.75C11.5593 17.75 11.5499 17.75 11.5404 17.75C11.531 17.75 11.5216 17.75 11.5123 17.75C11.5029 17.75 11.4935 17.75 11.4842 17.75C11.4749 17.75 11.4656 17.75 11.4563 17.75C11.447 17.75 11.4378 17.75 11.4285 17.75C11.4193 17.75 11.4101 17.75 11.4009 17.75C11.3917 17.75 11.3825 17.75 11.3734 17.75C11.3642 17.75 11.3551 17.75 11.346 17.75C11.3369 17.75 11.3278 17.75 11.3187 17.75C11.3097 17.75 11.3006 17.75 11.2916 17.75C11.2826 17.75 11.2736 17.75 11.2646 17.75C11.2556 17.75 11.2467 17.75 11.2377 17.75C11.2288 17.75 11.2199 17.75 11.211 17.75C11.2021 17.75 11.1932 17.75 11.1844 17.75C11.1755 17.75 11.1667 17.75 11.1579 17.75C11.1491 17.75 11.1403 17.75 11.1315 17.75C11.1227 17.75 11.114 17.75 11.1053 17.75C11.0966 17.75 11.0879 17.75 11.0792 17.75C11.0705 17.75 11.0618 17.75 11.0532 17.75C11.0445 17.75 11.0359 17.75 11.0273 17.75C11.0187 17.75 11.0102 17.75 11.0016 17.75C10.993 17.75 10.9845 17.75 10.976 17.75C10.9675 17.75 10.959 17.75 10.9505 17.75C10.942 17.75 10.9336 17.75 10.9252 17.75C10.9167 17.75 10.9083 17.75 10.8999 17.75C10.8915 17.75 10.8832 17.75 10.8748 17.75C10.8665 17.75 10.8581 17.75 10.8498 17.75C10.8415 17.75 10.8332 17.75 10.825 17.75C10.8167 17.75 10.8084 17.75 10.8002 17.75C10.792 17.75 10.7838 17.75 10.7756 17.75C10.7674 17.75 10.7592 17.75 10.7511 17.75C10.7429 17.75 10.7348 17.75 10.7267 17.75C10.7186 17.75 10.7105 17.75 10.7025 17.75C10.6944 17.75 10.6863 17.75 10.6783 17.75C10.6703 17.75 10.6623 17.75 10.6543 17.75C10.6463 17.75 10.6383 17.75 10.6304 17.75C10.6224 17.75 10.6145 17.75 10.6066 17.75C10.5987 17.75 10.5908 17.75 10.5829 17.75C10.5751 17.75 10.5672 17.75 10.5594 17.75C10.5516 17.75 10.5438 17.75 10.536 17.75C10.5282 17.75 10.5204 17.75 10.5127 17.75C10.5049 17.75 10.4972 17.75 10.4895 17.75C10.4818 17.75 10.4741 17.75 10.4664 17.75C10.4587 17.75 10.4511 17.75 10.4434 17.75C10.4358 17.75 10.4282 17.75 10.4206 17.75C10.413 17.75 10.4054 17.75 10.3979 17.75C10.3903 17.75 10.3828 17.75 10.3752 17.75C10.3677 17.75 10.3602 17.75 10.3527 17.75C10.3453 17.75 10.3378 17.75 10.3304 17.75C10.3229 17.75 10.3155 17.75 10.3081 17.75C10.3007 17.75 10.2933 17.75 10.2859 17.75C10.2786 17.75 10.2712 17.75 10.2639 17.75C10.2566 17.75 10.2492 17.75 10.242 17.75C10.2347 17.75 10.2274 17.75 10.2201 17.75C10.2129 17.75 10.2056 17.75 10.1984 17.75C10.1912 17.75 10.184 17.75 10.1768 17.75C10.1696 17.75 10.1625 17.75 10.1553 17.75C10.1482 17.75 10.1411 17.75 10.134 17.75C10.1269 17.75 10.1198 17.75 10.1127 17.75C10.1056 17.75 10.0986 17.75 10.0915 17.75C10.0845 17.75 10.0775 17.75 10.0705 17.75C10.0635 17.75 10.0565 17.75 10.0496 17.75C10.0426 17.75 10.0357 17.75 10.0287 17.75C10.0218 17.75 10.0149 17.75 10.008 17.75C10.0011 17.75 9.99426 17.75 9.9874 17.75C9.98055 17.75 9.97372 17.75 9.9669 17.75C9.96008 17.75 9.95329 17.75 9.9465 17.75C9.93972 17.75 9.93296 17.75 9.92621 17.75C9.91947 17.75 9.91274 17.75 9.90603 17.75C9.89932 17.75 9.89263 17.75 9.88595 17.75C9.87928 17.75 9.87262 17.75 9.86598 17.75C9.85934 17.75 9.85272 17.75 9.84611 17.75C9.83951 17.75 9.83292 17.75 9.82635 17.75C9.81978 17.75 9.81323 17.75 9.80669 17.75C9.80016 17.75 9.79364 17.75 9.78714 17.75C9.78064 17.75 9.77416 17.75 9.76769 17.75C9.76123 17.75 9.75478 17.75 9.74835 17.75C9.74191 17.75 9.7355 17.75 9.7291 17.75C9.7227 17.75 9.71632 17.75 9.70996 17.75C9.7036 17.75 9.69725 17.75 9.69092 17.75C9.68459 17.75 9.67828 17.75 9.67198 17.75C9.66569 17.75 9.65941 17.75 9.65315 17.75C9.64689 17.75 9.64064 17.75 9.63441 17.75C9.62818 17.75 9.62197 17.75 9.61578 17.75C9.60958 17.75 9.6034 17.75 9.59724 17.75C9.59108 17.75 9.58494 17.75 9.57881 17.75C9.57268 17.75 9.56657 17.75 9.56047 17.75C9.55438 17.75 9.5483 17.75 9.54224 17.75C9.53617 17.75 9.53013 17.75 9.5241 17.75C9.51807 17.75 9.51206 17.75 9.50606 17.75C9.50006 17.75 9.49408 17.75 9.48812 17.75C9.48215 17.75 9.47621 17.75 9.47027 17.75C9.46434 17.75 9.45843 17.75 9.45253 17.75C9.44663 17.75 9.44074 17.75 9.43488 17.75C9.42901 17.75 9.42316 17.75 9.41732 17.75C9.41149 17.75 9.40567 17.75 9.39986 17.75C9.39406 17.75 9.38827 17.75 9.3825 17.75C9.37673 17.75 9.37097 17.75 9.36523 17.75C9.35949 17.75 9.35377 17.75 9.34806 17.75C9.34235 17.75 9.33666 17.75 9.33098 17.75C9.3253 17.75 9.31964 17.75 9.31399 17.75C9.30835 17.75 9.30272 17.75 9.2971 17.75C9.29149 17.75 9.28589 17.75 9.2803 17.75C9.27472 17.75 9.26915 17.75 9.2636 17.75C9.25804 17.75 9.25251 17.75 9.24698 17.75C9.24146 17.75 9.23595 17.75 9.23046 17.75C9.22497 17.75 9.21949 17.75 9.21403 17.75C9.20857 17.75 9.20312 17.75 9.19769 17.75C9.19226 17.75 9.18685 17.75 9.18144 17.75C9.17604 17.75 9.17066 17.75 9.16529 17.75C9.15992 17.75 9.15456 17.75 9.14922 17.75C9.14388 17.75 9.13855 17.75 9.13324 17.75C9.12793 17.75 9.12263 17.75 9.11735 17.75C9.11207 17.75 9.1068 17.75 9.10155 17.75C9.0963 17.75 9.09106 17.75 9.08584 17.75C9.08062 17.75 9.07541 17.75 9.07022 17.75C9.06502 17.75 9.05984 17.75 9.05468 17.75C9.04952 17.75 9.04437 17.75 9.03923 17.75C9.0341 17.75 9.02897 17.75 9.02387 17.75C9.01876 17.75 9.01367 17.75 9.00859 17.75C9.00352 17.75 8.99845 17.75 8.9934 17.75C8.98835 17.75 8.98332 17.75 8.9783 17.75C8.97328 17.75 8.96827 17.75 8.96328 17.75C8.95829 17.75 8.95331 17.75 8.94835 17.75C8.94338 17.75 8.93843 17.75 8.9335 17.75C8.92856 17.75 8.92364 17.75 8.91873 17.75C8.91383 17.75 8.90893 17.75 8.90405 17.75C8.89917 17.75 8.89431 17.75 8.88945 17.75C8.8846 17.75 8.87976 17.75 8.87494 17.75C8.87012 17.75 8.8653 17.75 8.86051 17.75C8.85571 17.75 8.85093 17.75 8.84616 17.75C8.84139 17.75 8.83663 17.75 8.83189 17.75C8.82715 17.75 8.82242 17.75 8.8177 17.75C8.81299 17.75 8.80828 17.75 8.8036 17.75C8.79891 17.75 8.79423 17.75 8.78957 17.75C8.78491 17.75 8.78026 17.75 8.77563 17.75C8.77099 17.75 8.76637 17.75 8.76176 17.75C8.75715 17.75 8.75256 17.75 8.74797 17.75C8.74339 17.75 8.73882 17.75 8.73427 17.75C8.72971 17.75 8.72517 17.75 8.72064 17.75C8.71611 17.75 8.71159 17.75 8.70709 17.75C8.70259 17.75 8.6981 17.75 8.69362 17.75C8.68914 17.75 8.68468 17.75 8.68022 17.75C8.67577 17.75 8.67133 17.75 8.66691 17.75C8.66248 17.75 8.65807 17.75 8.65367 17.75C8.64926 17.75 8.64488 17.75 8.6405 17.75C8.63613 17.75 8.63176 17.75 8.62741 17.75C8.62306 17.75 8.61872 17.75 8.6144 17.75C8.61007 17.75 8.60576 17.75 8.60146 17.75C8.59716 17.75 8.59287 17.75 8.5886 17.75C8.58432 17.75 8.58006 17.75 8.57581 17.75C8.57156 17.75 8.56732 17.75 8.5631 17.75C8.55887 17.75 8.55466 17.75 8.55045 17.75C8.54625 17.75 8.54206 17.75 8.53789 17.75C8.53371 17.75 8.52954 17.75 8.52539 17.75C8.52124 17.75 8.5171 17.75 8.51297 17.75C8.50884 17.75 8.50472 17.75 8.50062 17.75C8.49651 17.75 8.49242 17.75 8.48834 17.75C8.48426 17.75 8.48019 17.75 8.47613 17.75C8.47207 17.75 8.46803 17.75 8.46399 17.75C8.45996 17.75 8.45594 17.75 8.45193 17.75C8.44792 17.75 8.44392 17.75 8.43993 17.75C8.43594 17.75 8.43197 17.75 8.428 17.75C8.42404 17.75 8.42009 17.75 8.41615 17.75C8.41221 17.75 8.40828 17.75 8.40436 17.75C8.40044 17.75 8.39653 17.75 8.39264 17.75C8.38874 17.75 8.38486 17.75 8.38099 17.75C8.37711 17.75 8.37325 17.75 8.3694 17.75C8.36555 17.75 8.36171 17.75 8.35789 17.75C8.35406 17.75 8.35024 17.75 8.34644 17.75C8.34263 17.75 8.33884 17.75 8.33505 17.75C8.33127 17.75 8.3275 17.75 8.32374 17.75C8.31997 17.75 8.31622 17.75 8.31248 17.75C8.30874 17.75 8.30502 17.75 8.3013 17.75C8.29758 17.75 8.29387 17.75 8.29018 17.75C8.28648 17.75 8.28279 17.75 8.27912 17.75C8.27544 17.75 8.27178 17.75 8.26813 17.75C8.26447 17.75 8.26083 17.75 8.2572 17.75C8.25357 17.75 8.24995 17.75 8.24633 17.75C8.24272 17.75 8.23912 17.75 8.23553 17.75C8.23194 17.75 8.22836 17.75 8.22479 17.75C8.22122 17.75 8.21766 17.75 8.21412 17.75C8.21057 17.75 8.20703 17.75 8.2035 17.75C8.19997 17.75 8.19645 17.75 8.19295 17.75C8.18944 17.75 8.18594 17.75 8.18245 17.75C8.17897 17.75 8.17549 17.75 8.17202 17.75C8.16856 17.75 8.1651 17.75 8.16165 17.75C8.1582 17.75 8.15477 17.75 8.15134 17.75C8.14791 17.75 8.14449 17.75 8.14109 17.75C8.13768 17.75 8.13428 17.75 8.13089 17.75C8.12751 17.75 8.12413 17.75 8.12076 17.75C8.11739 17.75 8.11403 17.75 8.11068 17.75C8.10733 17.75 8.104 17.75 8.10067 17.75C8.09734 17.75 8.09402 17.75 8.0907 17.75C8.08739 17.75 8.08409 17.75 8.0808 17.75C8.07751 17.75 8.07423 17.75 8.07096 17.75C8.06768 17.75 8.06442 17.75 8.06116 17.75C8.05791 17.75 8.05467 17.75 8.05143 17.75C8.0482 17.75 8.04497 17.75 8.04175 17.75C8.03854 17.75 8.03533 17.75 8.03213 17.75C8.02893 17.75 8.02574 17.75 8.02256 17.75C8.01938 17.75 8.01621 17.75 8.01305 17.75C8.00988 17.75 8.00673 17.75 8.00359 17.75C8.00044 17.75 7.99731 17.75 7.99418 17.75C7.99105 17.75 7.98794 17.75 7.98483 17.75C7.98172 17.75 7.97862 17.75 7.97553 17.75C7.97244 17.75 7.96935 17.75 7.96628 17.75C7.96321 17.75 7.96014 17.75 7.95708 17.75C7.95403 17.75 7.95098 17.75 7.94794 17.75C7.9449 17.75 7.94187 17.75 7.93885 17.75C7.93583 17.75 7.93281 17.75 7.92981 17.75C7.9268 17.75 7.9238 17.75 7.92082 17.75C7.91783 17.75 7.91485 17.75 7.91187 17.75C7.9089 17.75 7.90594 17.75 7.90298 17.75C7.90003 17.75 7.89708 17.75 7.89414 17.75C7.8912 17.75 7.88827 17.75 7.88535 17.75C7.88243 17.75 7.87951 17.75 7.87661 17.75C7.8737 17.75 7.8708 17.75 7.86791 17.75C7.86502 17.75 7.86214 17.75 7.85926 17.75C7.85639 17.75 7.85352 17.75 7.85066 17.75C7.8478 17.75 7.84495 17.75 7.84211 17.75C7.83926 17.75 7.83643 17.75 7.8336 17.75C7.83077 17.75 7.82795 17.75 7.82514 17.75C7.82233 17.75 7.81952 17.75 7.81672 17.75C7.81393 17.75 7.81114 17.75 7.80836 17.75C7.80557 17.75 7.8028 17.75 7.80003 17.75C7.79726 17.75 7.7945 17.75 7.79175 17.75C7.789 17.75 7.78625 17.75 7.78351 17.75C7.78078 17.75 7.77805 17.75 7.77532 17.75C7.7726 17.75 7.76989 17.75 7.76718 17.75C7.76447 17.75 7.76177 17.75 7.75907 17.75C7.75638 17.75 7.75369 17.75 7.75101 17.75C7.74833 17.75 7.74566 17.75 7.74299 17.75C7.74032 17.75 7.73766 17.75 7.73501 17.75C7.73236 17.75 7.72971 17.75 7.72707 17.75C7.72444 17.75 7.7218 17.75 7.71918 17.75C7.71655 17.75 7.71394 17.75 7.71133 17.75C7.70871 17.75 7.70611 17.75 7.70351 17.75C7.70091 17.75 7.69832 17.75 7.69574 17.75C7.69315 17.75 7.69057 17.75 7.688 17.75C7.68543 17.75 7.68287 17.75 7.68031 17.75C7.67775 17.75 7.6752 17.75 7.67265 17.75C7.67011 17.75 7.66757 17.75 7.66503 17.75C7.6625 17.75 7.65997 17.75 7.65745 17.75C7.65493 17.75 7.65242 17.75 7.64991 17.75C7.6474 17.75 7.6449 17.75 7.64241 17.75C7.63991 17.75 7.63742 17.75 7.63494 17.75C7.63245 17.75 7.62998 17.75 7.62751 17.75C7.62504 17.75 7.62257 17.75 7.62011 17.75C7.61765 17.75 7.6152 17.75 7.61275 17.75C7.6103 17.75 7.60786 17.75 7.60543 17.75C7.60299 17.75 7.60056 17.75 7.59814 17.75C7.59571 17.75 7.5933 17.75 7.59088 17.75C7.58847 17.75 7.58606 17.75 7.58366 17.75C7.58126 17.75 7.57886 17.75 7.57647 17.75C7.57408 17.75 7.5717 17.75 7.56932 17.75C7.56694 17.75 7.56457 17.75 7.5622 17.75C7.55983 17.75 7.55747 17.75 7.55511 17.75C7.55275 17.75 7.5504 17.75 7.54805 17.75C7.54571 17.75 7.54337 17.75 7.54103 17.75C7.53869 17.75 7.53636 17.75 7.53404 17.75C7.53171 17.75 7.52939 17.75 7.52708 17.75C7.52476 17.75 7.52245 17.75 7.52014 17.75C7.51784 17.75 7.51554 17.75 7.51324 17.75C7.51095 17.75 7.50866 17.75 7.50637 17.75C7.50409 17.75 7.50181 17.75 7.49953 17.75C7.49725 17.75 7.49498 17.75 7.49272 17.75C7.49045 17.75 7.48819 17.75 7.48593 17.75C7.48368 17.75 7.48143 17.75 7.47918 17.75C7.47693 17.75 7.47469 17.75 7.47245 17.75C7.47021 17.75 7.46798 17.75 7.46575 17.75C7.46352 17.75 7.4613 17.75 7.45908 17.75C7.45686 17.75 7.45464 17.75 7.45243 17.75C7.45022 17.75 7.44801 17.75 7.44581 17.75C7.44361 17.75 7.44141 17.75 7.43922 17.75C7.43702 17.75 7.43483 17.75 7.43265 17.75C7.43046 17.75 7.42828 17.75 7.4261 17.75C7.42393 17.75 7.42175 17.75 7.41958 17.75C7.41742 17.75 7.41525 17.75 7.41309 17.75C7.41093 17.75 7.40877 17.75 7.40662 17.75C7.40447 17.75 7.40232 17.75 7.40017 17.75C7.39803 17.75 7.39589 17.75 7.39375 17.75C7.39161 17.75 7.38948 17.75 7.38735 17.75C7.38522 17.75 7.38309 17.75 7.38097 17.75C7.37885 17.75 7.37673 17.75 7.37461 17.75C7.3725 17.75 7.37039 17.75 7.36828 17.75C7.36617 17.75 7.36407 17.75 7.36197 17.75C7.35986 17.75 7.35777 17.75 7.35567 17.75C7.35358 17.75 7.35149 17.75 7.3494 17.75C7.34731 17.75 7.34523 17.75 7.34315 17.75C7.34107 17.75 7.33899 17.75 7.33692 17.75C7.33484 17.75 7.33277 17.75 7.3307 17.75C7.32864 17.75 7.32657 17.75 7.32451 17.75C7.32245 17.75 7.32039 17.75 7.31833 17.75C7.31628 17.75 7.31423 17.75 7.31218 17.75C7.31013 17.75 7.30808 17.75 7.30604 17.75C7.30399 17.75 7.30195 17.75 7.29991 17.75C7.29788 17.75 7.29584 17.75 7.29381 17.75C7.29177 17.75 7.28975 17.75 7.28772 17.75C7.28569 17.75 7.28367 17.75 7.28165 17.75C7.27962 17.75 7.27761 17.75 7.27559 17.75C7.27357 17.75 7.27156 17.75 7.26955 17.75C7.26754 17.75 7.26553 17.75 7.26352 17.75C7.26151 17.75 7.25951 17.75 7.25751 17.75C7.25551 17.75 7.25351 17.75 7.25151 17.75C7.24951 17.75 7.24752 17.75 7.24553 17.75C7.24353 17.75 7.24154 17.75 7.23956 17.75C7.23757 17.75 7.23558 17.75 7.2336 17.75C7.23162 17.75 7.22963 17.75 7.22765 17.75C7.22567 17.75 7.2237 17.75 7.22172 17.75C7.21975 17.75 7.21777 17.75 7.2158 17.75C7.21383 17.75 7.21186 17.75 7.20989 17.75C7.20792 17.75 7.20596 17.75 7.20399 17.75C7.20203 17.75 7.20007 17.75 7.19811 17.75C7.19615 17.75 7.19419 17.75 7.19223 17.75C7.19027 17.75 7.18832 17.75 7.18636 17.75C7.18441 17.75 7.18246 17.75 7.1805 17.75C7.17855 17.75 7.1766 17.75 7.17466 17.75C7.17271 17.75 7.17076 17.75 7.16882 17.75C7.16687 17.75 7.16493 17.75 7.16298 17.75C7.16104 17.75 7.1591 17.75 7.15716 17.75C7.15522 17.75 7.15328 17.75 7.15135 17.75C7.14941 17.75 7.14747 17.75 7.14554 17.75C7.1436 17.75 7.14167 17.75 7.13973 17.75C7.1378 17.75 7.13587 17.75 7.13394 17.75C7.13201 17.75 7.13008 17.75 7.12815 17.75C7.12622 17.75 7.12429 17.75 7.12237 17.75C7.12044 17.75 7.11851 17.75 7.11659 17.75C7.11466 17.75 7.11274 17.75 7.11081 17.75C7.10889 17.75 7.10697 17.75 7.10504 17.75C7.10312 17.75 7.1012 17.75 7.09928 17.75C7.09736 17.75 7.09544 17.75 7.09352 17.75C7.0916 17.75 7.08968 17.75 7.08776 17.75C7.08584 17.75 7.08392 17.75 7.082 17.75C7.08009 17.75 7.07817 17.75 7.07625 17.75C7.07433 17.75 7.07242 17.75 7.0705 17.75C7.06858 17.75 7.06667 17.75 7.06475 17.75C7.06284 17.75 7.06092 17.75 7.059 17.75C7.05709 17.75 7.05517 17.75 7.05326 17.75C7.05134 17.75 7.04943 17.75 7.04751 17.75C7.0456 17.75 7.04368 17.75 7.04177 17.75C7.03985 17.75 7.03793 17.75 7.03602 17.75C7.0341 17.75 7.03219 17.75 7.03027 17.75C7.02836 17.75 7.02644 17.75 7.02452 17.75C7.02261 17.75 7.02069 17.75 7.01877 17.75C7.01686 17.75 7.01494 17.75 7.01302 17.75C7.01111 17.75 7.00919 17.75 7.00727 17.75C7.00535 17.75 7.00343 17.75 7.00151 17.75C6.9996 17.75 6.99768 17.75 6.99576 17.75C6.99384 17.75 6.99191 17.75 6.98999 17.75C6.98807 17.75 6.98615 17.75 6.98423 17.75C6.98231 17.75 6.98038 17.75 6.97846 17.75C6.97653 17.75 6.97461 17.75 6.97268 17.75C6.97076 17.75 6.96883 17.75 6.9669 17.75C6.96498 17.75 6.96305 17.75 6.96112 17.75C6.95919 17.75 6.95726 17.75 6.95533 17.75C6.9534 17.75 6.95146 17.75 6.94953 17.75C6.9476 17.75 6.94566 17.75 6.94373 17.75C6.94179 17.75 6.93986 17.75 6.93792 17.75C6.93598 17.75 6.93404 17.75 6.9321 17.75C6.93016 17.75 6.92822 17.75 6.92628 17.75C6.92433 17.75 6.92239 17.75 6.92044 17.75C6.9185 17.75 6.91655 17.75 6.9146 17.75C6.91265 17.75 6.9107 17.75 6.90875 17.75C6.9068 17.75 6.90485 17.75 6.90289 17.75C6.90094 17.75 6.89898 17.75 6.89702 17.75C6.89507 17.75 6.89311 17.75 6.89114 17.75C6.88918 17.75 6.88722 17.75 6.88526 17.75C6.88329 17.75 6.88132 17.75 6.87936 17.75C6.87739 17.75 6.87542 17.75 6.87344 17.75C6.87147 17.75 6.8695 17.75 6.86752 17.75C6.86555 17.75 6.86357 17.75 6.86159 17.75C6.85961 17.75 6.85762 17.75 6.85564 17.75C6.85365 17.75 6.85167 17.75 6.84968 17.75C6.84769 17.75 6.8457 17.75 6.84371 17.75C6.84171 17.75 6.83972 17.75 6.83772 17.75C6.83572 17.75 6.83372 17.75 6.83172 17.75C6.82972 17.75 6.82771 17.75 6.8257 17.75C6.8237 17.75 6.82169 17.75 6.81968 17.75C6.81766 17.75 6.81565 17.75 6.81363 17.75C6.81161 17.75 6.80959 17.75 6.80757 17.75C6.80555 17.75 6.80352 17.75 6.8015 17.75C6.79947 17.75 6.79744 17.75 6.7954 17.75C6.79337 17.75 6.79133 17.75 6.7893 17.75C6.78726 17.75 6.78521 17.75 6.78317 17.75C6.78112 17.75 6.77908 17.75 6.77703 17.75C6.77498 17.75 6.77292 17.75 6.77087 17.75C6.76881 17.75 6.76675 17.75 6.76469 17.75C6.76262 17.75 6.76056 17.75 6.75849 17.75C6.75642 17.75 6.75435 17.75 6.75227 17.75C6.7502 17.75 6.74812 17.75 6.74604 17.75C6.74395 17.75 6.74187 17.75 6.73978 17.75C6.73769 17.75 6.7356 17.75 6.7335 17.75C6.73141 17.75 6.72931 17.75 6.72721 17.75C6.72511 17.75 6.723 17.75 6.72089 17.75C6.71878 17.75 6.71667 17.75 6.71455 17.75C6.71243 17.75 6.71031 17.75 6.70819 17.75C6.70607 17.75 6.70394 17.75 6.70181 17.75C6.69968 17.75 6.69754 17.75 6.6954 17.75C6.69326 17.75 6.69112 17.75 6.68898 17.75C6.68683 17.75 6.68468 17.75 6.68252 17.75C6.68037 17.75 6.67821 17.75 6.67605 17.75C6.67389 17.75 6.67172 17.75 6.66955 17.75C6.66738 17.75 6.66521 17.75 6.66303 17.75C6.66085 17.75 6.65867 17.75 6.65648 17.75C6.65429 17.75 6.6521 17.75 6.64991 17.75C6.64771 17.75 6.64551 17.75 6.64331 17.75C6.6411 17.75 6.63889 17.75 6.63668 17.75C6.63447 17.75 6.63225 17.75 6.63003 17.75C6.62781 17.75 6.62558 17.75 6.62335 17.75C6.62112 17.75 6.61889 17.75 6.61665 17.75C6.61441 17.75 6.61216 17.75 6.60991 17.75C6.60767 17.75 6.60541 17.75 6.60315 17.75C6.60089 17.75 6.59863 17.75 6.59636 17.75C6.5941 17.75 6.59182 17.75 6.58955 17.75C6.58727 17.75 6.58499 17.75 6.5827 17.75C6.58041 17.75 6.57812 17.75 6.57582 17.75C6.57352 17.75 6.57122 17.75 6.56892 17.75C6.56661 17.75 6.5643 17.75 6.56198 17.75C6.55966 17.75 6.55734 17.75 6.55501 17.75C6.55268 17.75 6.55035 17.75 6.54801 17.75C6.54567 17.75 6.54333 17.75 6.54098 17.75C6.53863 17.75 6.53628 17.75 6.53392 17.75C6.53156 17.75 6.5292 17.75 6.52683 17.75C6.52446 17.75 6.52208 17.75 6.5197 17.75C6.51732 17.75 6.51493 17.75 6.51254 17.75C6.51015 17.75 6.50775 17.75 6.50535 17.75C6.50294 17.75 6.50053 17.75 6.49812 17.75C6.4957 17.75 6.49328 17.75 6.49086 17.75C6.48843 17.75 6.486 17.75 6.48356 17.75C6.48112 17.75 6.47868 17.75 6.47623 17.75C6.47378 17.75 6.47132 17.75 6.46886 17.75C6.4664 17.75 6.46393 17.75 6.46146 17.75C6.45899 17.75 6.45651 17.75 6.45402 17.75C6.45154 17.75 6.44905 17.75 6.44655 17.75C6.44405 17.75 6.44155 17.75 6.43904 17.75C6.43653 17.75 6.43401 17.75 6.43149 17.75C6.42896 17.75 6.42644 17.75 6.4239 17.75C6.42136 17.75 6.41882 17.75 6.41628 17.75C6.41373 17.75 6.41117 17.75 6.40861 17.75C6.40605 17.75 6.40348 17.75 6.40091 17.75C6.39834 17.75 6.39575 17.75 6.39317 17.75C6.39058 17.75 6.38799 17.75 6.38539 17.75C6.38279 17.75 6.38018 17.75 6.37756 17.75C6.37495 17.75 6.37233 17.75 6.3697 17.75C6.36707 17.75 6.36444 17.75 6.3618 17.75C6.35916 17.75 6.35651 17.75 6.35386 17.75C6.3512 17.75 6.34854 17.75 6.34587 17.75C6.3432 17.75 6.34053 17.75 6.33784 17.75C6.33516 17.75 6.33247 17.75 6.32977 17.75C6.32708 17.75 6.32437 17.75 6.32166 17.75C6.31895 17.75 6.31623 17.75 6.3135 17.75C6.31078 17.75 6.30805 17.75 6.3053 17.75C6.30256 17.75 6.29982 17.75 6.29706 17.75C6.29431 17.75 6.29154 17.75 6.28877 17.75C6.286 17.75 6.28323 17.75 6.28044 17.75C6.27765 17.75 6.27486 17.75 6.27206 17.75C6.26926 17.75 6.26645 17.75 6.26364 17.75C6.26082 17.75 6.258 17.75 6.25517 17.75C6.25234 17.75 6.2495 17.75 6.24665 17.75C6.24381 17.75 6.24095 17.75 6.23809 17.75C6.23523 17.75 6.23236 17.75 6.22948 17.75C6.2266 17.75 6.22372 17.75 6.22083 17.75C6.21793 17.75 6.21503 17.75 6.21212 17.75C6.20921 17.75 6.20629 17.75 6.20337 17.75C6.20044 17.75 6.19751 17.75 6.19457 17.75C6.19162 17.75 6.18867 17.75 6.18571 17.75C6.18276 17.75 6.17979 17.75 6.17682 17.75V17V16.25C6.17979 16.25 6.18276 16.25 6.18571 16.25C6.18867 16.25 6.19162 16.25 6.19457 16.25C6.19751 16.25 6.20044 16.25 6.20337 16.25C6.20629 16.25 6.20921 16.25 6.21212 16.25C6.21503 16.25 6.21793 16.25 6.22083 16.25C6.22372 16.25 6.2266 16.25 6.22948 16.25C6.23236 16.25 6.23523 16.25 6.23809 16.25C6.24095 16.25 6.24381 16.25 6.24665 16.25C6.2495 16.25 6.25234 16.25 6.25517 16.25C6.258 16.25 6.26082 16.25 6.26364 16.25C6.26645 16.25 6.26926 16.25 6.27206 16.25C6.27486 16.25 6.27765 16.25 6.28044 16.25C6.28323 16.25 6.286 16.25 6.28877 16.25C6.29154 16.25 6.29431 16.25 6.29706 16.25C6.29982 16.25 6.30256 16.25 6.3053 16.25C6.30805 16.25 6.31078 16.25 6.3135 16.25C6.31623 16.25 6.31895 16.25 6.32166 16.25C6.32437 16.25 6.32708 16.25 6.32977 16.25C6.33247 16.25 6.33516 16.25 6.33784 16.25C6.34053 16.25 6.3432 16.25 6.34587 16.25C6.34854 16.25 6.3512 16.25 6.35386 16.25C6.35651 16.25 6.35916 16.25 6.3618 16.25C6.36444 16.25 6.36707 16.25 6.3697 16.25C6.37233 16.25 6.37495 16.25 6.37756 16.25C6.38018 16.25 6.38279 16.25 6.38539 16.25C6.38799 16.25 6.39058 16.25 6.39317 16.25C6.39575 16.25 6.39834 16.25 6.40091 16.25C6.40348 16.25 6.40605 16.25 6.40861 16.25C6.41117 16.25 6.41373 16.25 6.41628 16.25C6.41882 16.25 6.42136 16.25 6.4239 16.25C6.42644 16.25 6.42896 16.25 6.43149 16.25C6.43401 16.25 6.43653 16.25 6.43904 16.25C6.44155 16.25 6.44405 16.25 6.44655 16.25C6.44905 16.25 6.45154 16.25 6.45402 16.25C6.45651 16.25 6.45899 16.25 6.46146 16.25C6.46393 16.25 6.4664 16.25 6.46886 16.25C6.47132 16.25 6.47378 16.25 6.47623 16.25C6.47868 16.25 6.48112 16.25 6.48356 16.25C6.486 16.25 6.48843 16.25 6.49086 16.25C6.49328 16.25 6.4957 16.25 6.49812 16.25C6.50053 16.25 6.50294 16.25 6.50535 16.25C6.50775 16.25 6.51015 16.25 6.51254 16.25C6.51493 16.25 6.51732 16.25 6.5197 16.25C6.52208 16.25 6.52446 16.25 6.52683 16.25C6.5292 16.25 6.53156 16.25 6.53392 16.25C6.53628 16.25 6.53863 16.25 6.54098 16.25C6.54333 16.25 6.54567 16.25 6.54801 16.25C6.55035 16.25 6.55268 16.25 6.55501 16.25C6.55734 16.25 6.55966 16.25 6.56198 16.25C6.5643 16.25 6.56661 16.25 6.56892 16.25C6.57122 16.25 6.57352 16.25 6.57582 16.25C6.57812 16.25 6.58041 16.25 6.5827 16.25C6.58499 16.25 6.58727 16.25 6.58955 16.25C6.59182 16.25 6.5941 16.25 6.59636 16.25C6.59863 16.25 6.60089 16.25 6.60315 16.25C6.60541 16.25 6.60767 16.25 6.60991 16.25C6.61216 16.25 6.61441 16.25 6.61665 16.25C6.61889 16.25 6.62112 16.25 6.62335 16.25C6.62558 16.25 6.62781 16.25 6.63003 16.25C6.63225 16.25 6.63447 16.25 6.63668 16.25C6.63889 16.25 6.6411 16.25 6.64331 16.25C6.64551 16.25 6.64771 16.25 6.64991 16.25C6.6521 16.25 6.65429 16.25 6.65648 16.25C6.65867 16.25 6.66085 16.25 6.66303 16.25C6.66521 16.25 6.66738 16.25 6.66955 16.25C6.67172 16.25 6.67389 16.25 6.67605 16.25C6.67821 16.25 6.68037 16.25 6.68252 16.25C6.68468 16.25 6.68683 16.25 6.68898 16.25C6.69112 16.25 6.69326 16.25 6.6954 16.25C6.69754 16.25 6.69968 16.25 6.70181 16.25C6.70394 16.25 6.70607 16.25 6.70819 16.25C6.71031 16.25 6.71243 16.25 6.71455 16.25C6.71667 16.25 6.71878 16.25 6.72089 16.25C6.723 16.25 6.72511 16.25 6.72721 16.25C6.72931 16.25 6.73141 16.25 6.7335 16.25C6.7356 16.25 6.73769 16.25 6.73978 16.25C6.74187 16.25 6.74395 16.25 6.74604 16.25C6.74812 16.25 6.7502 16.25 6.75227 16.25C6.75435 16.25 6.75642 16.25 6.75849 16.25C6.76056 16.25 6.76262 16.25 6.76469 16.25C6.76675 16.25 6.76881 16.25 6.77087 16.25C6.77292 16.25 6.77498 16.25 6.77703 16.25C6.77908 16.25 6.78112 16.25 6.78317 16.25C6.78521 16.25 6.78726 16.25 6.7893 16.25C6.79133 16.25 6.79337 16.25 6.7954 16.25C6.79744 16.25 6.79947 16.25 6.8015 16.25C6.80352 16.25 6.80555 16.25 6.80757 16.25C6.80959 16.25 6.81161 16.25 6.81363 16.25C6.81565 16.25 6.81766 16.25 6.81968 16.25C6.82169 16.25 6.8237 16.25 6.8257 16.25C6.82771 16.25 6.82972 16.25 6.83172 16.25C6.83372 16.25 6.83572 16.25 6.83772 16.25C6.83972 16.25 6.84171 16.25 6.84371 16.25C6.8457 16.25 6.84769 16.25 6.84968 16.25C6.85167 16.25 6.85365 16.25 6.85564 16.25C6.85762 16.25 6.85961 16.25 6.86159 16.25C6.86357 16.25 6.86555 16.25 6.86752 16.25C6.8695 16.25 6.87147 16.25 6.87344 16.25C6.87542 16.25 6.87739 16.25 6.87936 16.25C6.88132 16.25 6.88329 16.25 6.88526 16.25C6.88722 16.25 6.88918 16.25 6.89114 16.25C6.89311 16.25 6.89507 16.25 6.89702 16.25C6.89898 16.25 6.90094 16.25 6.90289 16.25C6.90485 16.25 6.9068 16.25 6.90875 16.25C6.9107 16.25 6.91265 16.25 6.9146 16.25C6.91655 16.25 6.9185 16.25 6.92044 16.25C6.92239 16.25 6.92433 16.25 6.92628 16.25C6.92822 16.25 6.93016 16.25 6.9321 16.25C6.93404 16.25 6.93598 16.25 6.93792 16.25C6.93986 16.25 6.94179 16.25 6.94373 16.25C6.94566 16.25 6.9476 16.25 6.94953 16.25C6.95146 16.25 6.9534 16.25 6.95533 16.25C6.95726 16.25 6.95919 16.25 6.96112 16.25C6.96305 16.25 6.96498 16.25 6.9669 16.25C6.96883 16.25 6.97076 16.25 6.97268 16.25C6.97461 16.25 6.97653 16.25 6.97846 16.25C6.98038 16.25 6.98231 16.25 6.98423 16.25C6.98615 16.25 6.98807 16.25 6.98999 16.25C6.99191 16.25 6.99384 16.25 6.99576 16.25C6.99768 16.25 6.9996 16.25 7.00151 16.25C7.00343 16.25 7.00535 16.25 7.00727 16.25C7.00919 16.25 7.01111 16.25 7.01302 16.25C7.01494 16.25 7.01686 16.25 7.01877 16.25C7.02069 16.25 7.02261 16.25 7.02452 16.25C7.02644 16.25 7.02836 16.25 7.03027 16.25C7.03219 16.25 7.0341 16.25 7.03602 16.25C7.03793 16.25 7.03985 16.25 7.04177 16.25C7.04368 16.25 7.0456 16.25 7.04751 16.25C7.04943 16.25 7.05134 16.25 7.05326 16.25C7.05517 16.25 7.05709 16.25 7.059 16.25C7.06092 16.25 7.06284 16.25 7.06475 16.25C7.06667 16.25 7.06858 16.25 7.0705 16.25C7.07242 16.25 7.07433 16.25 7.07625 16.25C7.07817 16.25 7.08009 16.25 7.082 16.25C7.08392 16.25 7.08584 16.25 7.08776 16.25C7.08968 16.25 7.0916 16.25 7.09352 16.25C7.09544 16.25 7.09736 16.25 7.09928 16.25C7.1012 16.25 7.10312 16.25 7.10504 16.25C7.10697 16.25 7.10889 16.25 7.11081 16.25C7.11274 16.25 7.11466 16.25 7.11659 16.25C7.11851 16.25 7.12044 16.25 7.12237 16.25C7.12429 16.25 7.12622 16.25 7.12815 16.25C7.13008 16.25 7.13201 16.25 7.13394 16.25C7.13587 16.25 7.1378 16.25 7.13973 16.25C7.14167 16.25 7.1436 16.25 7.14554 16.25C7.14747 16.25 7.14941 16.25 7.15135 16.25C7.15328 16.25 7.15522 16.25 7.15716 16.25C7.1591 16.25 7.16104 16.25 7.16298 16.25C7.16493 16.25 7.16687 16.25 7.16882 16.25C7.17076 16.25 7.17271 16.25 7.17466 16.25C7.1766 16.25 7.17855 16.25 7.1805 16.25C7.18246 16.25 7.18441 16.25 7.18636 16.25C7.18832 16.25 7.19027 16.25 7.19223 16.25C7.19419 16.25 7.19615 16.25 7.19811 16.25C7.20007 16.25 7.20203 16.25 7.20399 16.25C7.20596 16.25 7.20792 16.25 7.20989 16.25C7.21186 16.25 7.21383 16.25 7.2158 16.25C7.21777 16.25 7.21975 16.25 7.22172 16.25C7.2237 16.25 7.22567 16.25 7.22765 16.25C7.22963 16.25 7.23162 16.25 7.2336 16.25C7.23558 16.25 7.23757 16.25 7.23956 16.25C7.24154 16.25 7.24353 16.25 7.24553 16.25C7.24752 16.25 7.24951 16.25 7.25151 16.25C7.25351 16.25 7.25551 16.25 7.25751 16.25C7.25951 16.25 7.26151 16.25 7.26352 16.25C7.26553 16.25 7.26754 16.25 7.26955 16.25C7.27156 16.25 7.27357 16.25 7.27559 16.25C7.27761 16.25 7.27962 16.25 7.28165 16.25C7.28367 16.25 7.28569 16.25 7.28772 16.25C7.28975 16.25 7.29177 16.25 7.29381 16.25C7.29584 16.25 7.29788 16.25 7.29991 16.25C7.30195 16.25 7.30399 16.25 7.30604 16.25C7.30808 16.25 7.31013 16.25 7.31218 16.25C7.31423 16.25 7.31628 16.25 7.31833 16.25C7.32039 16.25 7.32245 16.25 7.32451 16.25C7.32657 16.25 7.32864 16.25 7.3307 16.25C7.33277 16.25 7.33484 16.25 7.33692 16.25C7.33899 16.25 7.34107 16.25 7.34315 16.25C7.34523 16.25 7.34731 16.25 7.3494 16.25C7.35149 16.25 7.35358 16.25 7.35567 16.25C7.35777 16.25 7.35986 16.25 7.36197 16.25C7.36407 16.25 7.36617 16.25 7.36828 16.25C7.37039 16.25 7.3725 16.25 7.37461 16.25C7.37673 16.25 7.37885 16.25 7.38097 16.25C7.38309 16.25 7.38522 16.25 7.38735 16.25C7.38948 16.25 7.39161 16.25 7.39375 16.25C7.39589 16.25 7.39803 16.25 7.40017 16.25C7.40232 16.25 7.40447 16.25 7.40662 16.25C7.40877 16.25 7.41093 16.25 7.41309 16.25C7.41525 16.25 7.41742 16.25 7.41958 16.25C7.42175 16.25 7.42393 16.25 7.4261 16.25C7.42828 16.25 7.43046 16.25 7.43265 16.25C7.43483 16.25 7.43702 16.25 7.43922 16.25C7.44141 16.25 7.44361 16.25 7.44581 16.25C7.44801 16.25 7.45022 16.25 7.45243 16.25C7.45464 16.25 7.45686 16.25 7.45908 16.25C7.4613 16.25 7.46352 16.25 7.46575 16.25C7.46798 16.25 7.47021 16.25 7.47245 16.25C7.47469 16.25 7.47693 16.25 7.47918 16.25C7.48143 16.25 7.48368 16.25 7.48593 16.25C7.48819 16.25 7.49045 16.25 7.49272 16.25C7.49498 16.25 7.49725 16.25 7.49953 16.25C7.50181 16.25 7.50409 16.25 7.50637 16.25C7.50866 16.25 7.51095 16.25 7.51324 16.25C7.51554 16.25 7.51784 16.25 7.52014 16.25C7.52245 16.25 7.52476 16.25 7.52708 16.25C7.52939 16.25 7.53171 16.25 7.53404 16.25C7.53636 16.25 7.53869 16.25 7.54103 16.25C7.54337 16.25 7.54571 16.25 7.54805 16.25C7.5504 16.25 7.55275 16.25 7.55511 16.25C7.55747 16.25 7.55983 16.25 7.5622 16.25C7.56457 16.25 7.56694 16.25 7.56932 16.25C7.5717 16.25 7.57408 16.25 7.57647 16.25C7.57886 16.25 7.58126 16.25 7.58366 16.25C7.58606 16.25 7.58847 16.25 7.59088 16.25C7.5933 16.25 7.59571 16.25 7.59814 16.25C7.60056 16.25 7.60299 16.25 7.60543 16.25C7.60786 16.25 7.6103 16.25 7.61275 16.25C7.6152 16.25 7.61765 16.25 7.62011 16.25C7.62257 16.25 7.62504 16.25 7.62751 16.25C7.62998 16.25 7.63245 16.25 7.63494 16.25C7.63742 16.25 7.63991 16.25 7.64241 16.25C7.6449 16.25 7.6474 16.25 7.64991 16.25C7.65242 16.25 7.65493 16.25 7.65745 16.25C7.65997 16.25 7.6625 16.25 7.66503 16.25C7.66757 16.25 7.67011 16.25 7.67265 16.25C7.6752 16.25 7.67775 16.25 7.68031 16.25C7.68287 16.25 7.68543 16.25 7.688 16.25C7.69057 16.25 7.69315 16.25 7.69574 16.25C7.69832 16.25 7.70091 16.25 7.70351 16.25C7.70611 16.25 7.70871 16.25 7.71133 16.25C7.71394 16.25 7.71655 16.25 7.71918 16.25C7.7218 16.25 7.72444 16.25 7.72707 16.25C7.72971 16.25 7.73236 16.25 7.73501 16.25C7.73766 16.25 7.74032 16.25 7.74299 16.25C7.74566 16.25 7.74833 16.25 7.75101 16.25C7.75369 16.25 7.75638 16.25 7.75907 16.25C7.76177 16.25 7.76447 16.25 7.76718 16.25C7.76989 16.25 7.7726 16.25 7.77532 16.25C7.77805 16.25 7.78078 16.25 7.78351 16.25C7.78625 16.25 7.789 16.25 7.79175 16.25C7.7945 16.25 7.79726 16.25 7.80003 16.25C7.8028 16.25 7.80557 16.25 7.80836 16.25C7.81114 16.25 7.81393 16.25 7.81672 16.25C7.81952 16.25 7.82233 16.25 7.82514 16.25C7.82795 16.25 7.83077 16.25 7.8336 16.25C7.83643 16.25 7.83926 16.25 7.84211 16.25C7.84495 16.25 7.8478 16.25 7.85066 16.25C7.85352 16.25 7.85639 16.25 7.85926 16.25C7.86214 16.25 7.86502 16.25 7.86791 16.25C7.8708 16.25 7.8737 16.25 7.87661 16.25C7.87951 16.25 7.88243 16.25 7.88535 16.25C7.88827 16.25 7.8912 16.25 7.89414 16.25C7.89708 16.25 7.90003 16.25 7.90298 16.25C7.90594 16.25 7.9089 16.25 7.91187 16.25C7.91485 16.25 7.91783 16.25 7.92082 16.25C7.9238 16.25 7.9268 16.25 7.92981 16.25C7.93281 16.25 7.93583 16.25 7.93885 16.25C7.94187 16.25 7.9449 16.25 7.94794 16.25C7.95098 16.25 7.95403 16.25 7.95708 16.25C7.96014 16.25 7.96321 16.25 7.96628 16.25C7.96935 16.25 7.97244 16.25 7.97553 16.25C7.97862 16.25 7.98172 16.25 7.98483 16.25C7.98794 16.25 7.99105 16.25 7.99418 16.25C7.99731 16.25 8.00044 16.25 8.00359 16.25C8.00673 16.25 8.00988 16.25 8.01305 16.25C8.01621 16.25 8.01938 16.25 8.02256 16.25C8.02574 16.25 8.02893 16.25 8.03213 16.25C8.03533 16.25 8.03854 16.25 8.04175 16.25C8.04497 16.25 8.0482 16.25 8.05143 16.25C8.05467 16.25 8.05791 16.25 8.06116 16.25C8.06442 16.25 8.06768 16.25 8.07096 16.25C8.07423 16.25 8.07751 16.25 8.0808 16.25C8.08409 16.25 8.08739 16.25 8.0907 16.25C8.09402 16.25 8.09734 16.25 8.10067 16.25C8.104 16.25 8.10733 16.25 8.11068 16.25C8.11403 16.25 8.11739 16.25 8.12076 16.25C8.12413 16.25 8.12751 16.25 8.13089 16.25C8.13428 16.25 8.13768 16.25 8.14109 16.25C8.14449 16.25 8.14791 16.25 8.15134 16.25C8.15477 16.25 8.1582 16.25 8.16165 16.25C8.1651 16.25 8.16856 16.25 8.17202 16.25C8.17549 16.25 8.17897 16.25 8.18245 16.25C8.18594 16.25 8.18944 16.25 8.19295 16.25C8.19645 16.25 8.19997 16.25 8.2035 16.25C8.20703 16.25 8.21057 16.25 8.21412 16.25C8.21766 16.25 8.22122 16.25 8.22479 16.25C8.22836 16.25 8.23194 16.25 8.23553 16.25C8.23912 16.25 8.24272 16.25 8.24633 16.25C8.24995 16.25 8.25357 16.25 8.2572 16.25C8.26083 16.25 8.26447 16.25 8.26813 16.25C8.27178 16.25 8.27544 16.25 8.27912 16.25C8.28279 16.25 8.28648 16.25 8.29018 16.25C8.29387 16.25 8.29758 16.25 8.3013 16.25C8.30502 16.25 8.30874 16.25 8.31248 16.25C8.31622 16.25 8.31997 16.25 8.32374 16.25C8.3275 16.25 8.33127 16.25 8.33505 16.25C8.33884 16.25 8.34263 16.25 8.34644 16.25C8.35024 16.25 8.35406 16.25 8.35789 16.25C8.36171 16.25 8.36555 16.25 8.3694 16.25C8.37325 16.25 8.37711 16.25 8.38099 16.25C8.38486 16.25 8.38874 16.25 8.39264 16.25C8.39653 16.25 8.40044 16.25 8.40436 16.25C8.40828 16.25 8.41221 16.25 8.41615 16.25C8.42009 16.25 8.42404 16.25 8.428 16.25C8.43197 16.25 8.43594 16.25 8.43993 16.25C8.44392 16.25 8.44792 16.25 8.45193 16.25C8.45594 16.25 8.45996 16.25 8.46399 16.25C8.46803 16.25 8.47207 16.25 8.47613 16.25C8.48019 16.25 8.48426 16.25 8.48834 16.25C8.49242 16.25 8.49651 16.25 8.50062 16.25C8.50472 16.25 8.50884 16.25 8.51297 16.25C8.5171 16.25 8.52124 16.25 8.52539 16.25C8.52954 16.25 8.53371 16.25 8.53789 16.25C8.54206 16.25 8.54625 16.25 8.55045 16.25C8.55466 16.25 8.55887 16.25 8.5631 16.25C8.56732 16.25 8.57156 16.25 8.57581 16.25C8.58006 16.25 8.58432 16.25 8.5886 16.25C8.59287 16.25 8.59716 16.25 8.60146 16.25C8.60576 16.25 8.61007 16.25 8.6144 16.25C8.61872 16.25 8.62306 16.25 8.62741 16.25C8.63176 16.25 8.63613 16.25 8.6405 16.25C8.64488 16.25 8.64926 16.25 8.65367 16.25C8.65807 16.25 8.66248 16.25 8.66691 16.25C8.67133 16.25 8.67577 16.25 8.68022 16.25C8.68468 16.25 8.68914 16.25 8.69362 16.25C8.6981 16.25 8.70259 16.25 8.70709 16.25C8.71159 16.25 8.71611 16.25 8.72064 16.25C8.72517 16.25 8.72971 16.25 8.73427 16.25C8.73882 16.25 8.74339 16.25 8.74797 16.25C8.75256 16.25 8.75715 16.25 8.76176 16.25C8.76637 16.25 8.77099 16.25 8.77563 16.25C8.78026 16.25 8.78491 16.25 8.78957 16.25C8.79423 16.25 8.79891 16.25 8.8036 16.25C8.80828 16.25 8.81299 16.25 8.8177 16.25C8.82242 16.25 8.82715 16.25 8.83189 16.25C8.83663 16.25 8.84139 16.25 8.84616 16.25C8.85093 16.25 8.85571 16.25 8.86051 16.25C8.8653 16.25 8.87012 16.25 8.87494 16.25C8.87976 16.25 8.8846 16.25 8.88945 16.25C8.89431 16.25 8.89917 16.25 8.90405 16.25C8.90893 16.25 8.91383 16.25 8.91873 16.25C8.92364 16.25 8.92856 16.25 8.9335 16.25C8.93843 16.25 8.94338 16.25 8.94835 16.25C8.95331 16.25 8.95829 16.25 8.96328 16.25C8.96827 16.25 8.97328 16.25 8.9783 16.25C8.98332 16.25 8.98835 16.25 8.9934 16.25C8.99845 16.25 9.00352 16.25 9.00859 16.25C9.01367 16.25 9.01876 16.25 9.02387 16.25C9.02897 16.25 9.0341 16.25 9.03923 16.25C9.04437 16.25 9.04952 16.25 9.05468 16.25C9.05984 16.25 9.06502 16.25 9.07022 16.25C9.07541 16.25 9.08062 16.25 9.08584 16.25C9.09106 16.25 9.0963 16.25 9.10155 16.25C9.1068 16.25 9.11207 16.25 9.11735 16.25C9.12263 16.25 9.12793 16.25 9.13324 16.25C9.13855 16.25 9.14388 16.25 9.14922 16.25C9.15456 16.25 9.15992 16.25 9.16529 16.25C9.17066 16.25 9.17604 16.25 9.18144 16.25C9.18685 16.25 9.19226 16.25 9.19769 16.25C9.20312 16.25 9.20857 16.25 9.21403 16.25C9.21949 16.25 9.22497 16.25 9.23046 16.25C9.23595 16.25 9.24146 16.25 9.24698 16.25C9.25251 16.25 9.25804 16.25 9.2636 16.25C9.26915 16.25 9.27472 16.25 9.2803 16.25C9.28589 16.25 9.29149 16.25 9.2971 16.25C9.30272 16.25 9.30835 16.25 9.31399 16.25C9.31964 16.25 9.3253 16.25 9.33098 16.25C9.33666 16.25 9.34235 16.25 9.34806 16.25C9.35377 16.25 9.35949 16.25 9.36523 16.25C9.37097 16.25 9.37673 16.25 9.3825 16.25C9.38827 16.25 9.39406 16.25 9.39986 16.25C9.40567 16.25 9.41149 16.25 9.41732 16.25C9.42316 16.25 9.42901 16.25 9.43488 16.25C9.44074 16.25 9.44663 16.25 9.45253 16.25C9.45843 16.25 9.46434 16.25 9.47027 16.25C9.47621 16.25 9.48215 16.25 9.48812 16.25C9.49408 16.25 9.50006 16.25 9.50606 16.25C9.51206 16.25 9.51807 16.25 9.5241 16.25C9.53013 16.25 9.53617 16.25 9.54224 16.25C9.5483 16.25 9.55438 16.25 9.56047 16.25C9.56657 16.25 9.57268 16.25 9.57881 16.25C9.58494 16.25 9.59108 16.25 9.59724 16.25C9.6034 16.25 9.60958 16.25 9.61578 16.25C9.62197 16.25 9.62818 16.25 9.63441 16.25C9.64064 16.25 9.64689 16.25 9.65315 16.25C9.65941 16.25 9.66569 16.25 9.67198 16.25C9.67828 16.25 9.68459 16.25 9.69092 16.25C9.69725 16.25 9.7036 16.25 9.70996 16.25C9.71632 16.25 9.7227 16.25 9.7291 16.25C9.7355 16.25 9.74191 16.25 9.74835 16.25C9.75478 16.25 9.76123 16.25 9.76769 16.25C9.77416 16.25 9.78064 16.25 9.78714 16.25C9.79364 16.25 9.80016 16.25 9.80669 16.25C9.81323 16.25 9.81978 16.25 9.82635 16.25C9.83292 16.25 9.83951 16.25 9.84611 16.25C9.85272 16.25 9.85934 16.25 9.86598 16.25C9.87262 16.25 9.87928 16.25 9.88595 16.25C9.89263 16.25 9.89932 16.25 9.90603 16.25C9.91274 16.25 9.91947 16.25 9.92621 16.25C9.93296 16.25 9.93972 16.25 9.9465 16.25C9.95329 16.25 9.96008 16.25 9.9669 16.25C9.97372 16.25 9.98055 16.25 9.9874 16.25C9.99426 16.25 10.0011 16.25 10.008 16.25C10.0149 16.25 10.0218 16.25 10.0287 16.25C10.0357 16.25 10.0426 16.25 10.0496 16.25C10.0565 16.25 10.0635 16.25 10.0705 16.25C10.0775 16.25 10.0845 16.25 10.0915 16.25C10.0986 16.25 10.1056 16.25 10.1127 16.25C10.1198 16.25 10.1269 16.25 10.134 16.25C10.1411 16.25 10.1482 16.25 10.1553 16.25C10.1625 16.25 10.1696 16.25 10.1768 16.25C10.184 16.25 10.1912 16.25 10.1984 16.25C10.2056 16.25 10.2129 16.25 10.2201 16.25C10.2274 16.25 10.2347 16.25 10.242 16.25C10.2492 16.25 10.2566 16.25 10.2639 16.25C10.2712 16.25 10.2786 16.25 10.2859 16.25C10.2933 16.25 10.3007 16.25 10.3081 16.25C10.3155 16.25 10.3229 16.25 10.3304 16.25C10.3378 16.25 10.3453 16.25 10.3527 16.25C10.3602 16.25 10.3677 16.25 10.3752 16.25C10.3828 16.25 10.3903 16.25 10.3979 16.25C10.4054 16.25 10.413 16.25 10.4206 16.25C10.4282 16.25 10.4358 16.25 10.4434 16.25C10.4511 16.25 10.4587 16.25 10.4664 16.25C10.4741 16.25 10.4818 16.25 10.4895 16.25C10.4972 16.25 10.5049 16.25 10.5127 16.25C10.5204 16.25 10.5282 16.25 10.536 16.25C10.5438 16.25 10.5516 16.25 10.5594 16.25C10.5672 16.25 10.5751 16.25 10.5829 16.25C10.5908 16.25 10.5987 16.25 10.6066 16.25C10.6145 16.25 10.6224 16.25 10.6304 16.25C10.6383 16.25 10.6463 16.25 10.6543 16.25C10.6623 16.25 10.6703 16.25 10.6783 16.25C10.6863 16.25 10.6944 16.25 10.7025 16.25C10.7105 16.25 10.7186 16.25 10.7267 16.25C10.7348 16.25 10.7429 16.25 10.7511 16.25C10.7592 16.25 10.7674 16.25 10.7756 16.25C10.7838 16.25 10.792 16.25 10.8002 16.25C10.8084 16.25 10.8167 16.25 10.825 16.25C10.8332 16.25 10.8415 16.25 10.8498 16.25C10.8581 16.25 10.8665 16.25 10.8748 16.25C10.8832 16.25 10.8915 16.25 10.8999 16.25C10.9083 16.25 10.9167 16.25 10.9252 16.25C10.9336 16.25 10.942 16.25 10.9505 16.25C10.959 16.25 10.9675 16.25 10.976 16.25C10.9845 16.25 10.993 16.25 11.0016 16.25C11.0102 16.25 11.0187 16.25 11.0273 16.25C11.0359 16.25 11.0445 16.25 11.0532 16.25C11.0618 16.25 11.0705 16.25 11.0792 16.25C11.0879 16.25 11.0966 16.25 11.1053 16.25C11.114 16.25 11.1227 16.25 11.1315 16.25C11.1403 16.25 11.1491 16.25 11.1579 16.25C11.1667 16.25 11.1755 16.25 11.1844 16.25C11.1932 16.25 11.2021 16.25 11.211 16.25C11.2199 16.25 11.2288 16.25 11.2377 16.25C11.2467 16.25 11.2556 16.25 11.2646 16.25C11.2736 16.25 11.2826 16.25 11.2916 16.25C11.3006 16.25 11.3097 16.25 11.3187 16.25C11.3278 16.25 11.3369 16.25 11.346 16.25C11.3551 16.25 11.3642 16.25 11.3734 16.25C11.3825 16.25 11.3917 16.25 11.4009 16.25C11.4101 16.25 11.4193 16.25 11.4285 16.25C11.4378 16.25 11.447 16.25 11.4563 16.25C11.4656 16.25 11.4749 16.25 11.4842 16.25C11.4935 16.25 11.5029 16.25 11.5123 16.25C11.5216 16.25 11.531 16.25 11.5404 16.25C11.5499 16.25 11.5593 16.25 11.5687 16.25C11.5782 16.25 11.5877 16.25 11.5972 16.25C11.6067 16.25 11.6162 16.25 11.6258 16.25C11.6353 16.25 11.6449 16.25 11.6545 16.25C11.6641 16.25 11.6737 16.25 11.6833 16.25C11.6929 16.25 11.7026 16.25 11.7123 16.25C11.722 16.25 11.7317 16.25 11.7414 16.25C11.7511 16.25 11.7609 16.25 11.7706 16.25C11.7804 16.25 11.7902 16.25 11.8 16.25C11.8098 16.25 11.8197 16.25 11.8295 16.25C11.8394 16.25 11.8493 16.25 11.8592 16.25C11.8691 16.25 11.879 16.25 11.889 16.25C11.8989 16.25 11.9089 16.25 11.9189 16.25C11.9289 16.25 11.9389 16.25 11.949 16.25C11.959 16.25 11.9691 16.25 11.9792 16.25C11.9893 16.25 11.9994 16.25 12.0095 16.25C12.0197 16.25 12.0298 16.25 12.04 16.25C12.0502 16.25 12.0604 16.25 12.0706 16.25C12.0809 16.25 12.0911 16.25 12.1014 16.25C12.1117 16.25 12.122 16.25 12.1323 16.25C12.1426 16.25 12.153 16.25 12.1633 16.25C12.1737 16.25 12.1841 16.25 12.1945 16.25C12.2049 16.25 12.2154 16.25 12.2258 16.25C12.2363 16.25 12.2468 16.25 12.2573 16.25C12.2678 16.25 12.2784 16.25 12.2889 16.25C12.2995 16.25 12.3101 16.25 12.3207 16.25C12.3313 16.25 12.3419 16.25 12.3526 16.25C12.3632 16.25 12.3739 16.25 12.3846 16.25C12.3953 16.25 12.406 16.25 12.4168 16.25C12.4275 16.25 12.4383 16.25 12.4491 16.25C12.4599 16.25 12.4707 16.25 12.4816 16.25C12.4924 16.25 12.5033 16.25 12.5142 16.25C12.5251 16.25 12.536 16.25 12.5469 16.25C12.5579 16.25 12.5688 16.25 12.5798 16.25C12.5908 16.25 12.6018 16.25 12.6129 16.25C12.6239 16.25 12.635 16.25 12.6461 16.25C12.6572 16.25 12.6683 16.25 12.6794 16.25C12.6905 16.25 12.7017 16.25 12.7129 16.25C12.7241 16.25 12.7353 16.25 12.7465 16.25C12.7578 16.25 12.769 16.25 12.7803 16.25C12.7916 16.25 12.8029 16.25 12.8142 16.25C12.8256 16.25 12.8369 16.25 12.8483 16.25C12.8597 16.25 12.8711 16.25 12.8825 16.25C12.894 16.25 12.9054 16.25 12.9169 16.25C12.9284 16.25 12.9399 16.25 12.9514 16.25V17ZM1 4.80952L0.482985 4.26621L4.48631 0.456682L5.00332 1L5.52034 1.54332L1.51702 5.35284L1 4.80952ZM1 4.80952L1.51702 4.26621L5.52034 8.07573L5.00332 8.61905L4.48631 9.16237L0.482985 5.35284L1 4.80952Z" fill="white"/>
</svg>
