<svg width="16" height="15" viewBox="0 0 16 15" fill="none" xmlns="http://www.w3.org/2000/svg">
<path d="M7.2 13.3333H4C3.77333 13.3333 3.58333 13.4132 3.43 13.5729C3.27667 13.7326 3.2 13.9306 3.2 14.1667C3.2 14.4028 3.27667 14.6007 3.43 14.7604C3.58333 14.9201 3.77333 15 4 15H12C12.2267 15 12.4167 14.9201 12.57 14.7604C12.7233 14.6007 12.8 14.4028 12.8 14.1667C12.8 13.9306 12.7233 13.7326 12.57 13.5729C12.4167 13.4132 12.2267 13.3333 12 13.3333H8.8V7.33333L9.52 8.08333C9.66667 8.23611 9.85333 8.3125 10.08 8.3125C10.3067 8.3125 10.4933 8.23611 10.64 8.08333C10.7867 7.93056 10.86 7.73611 10.86 7.5C10.86 7.26389 10.7867 7.06944 10.64 6.91667L8.56 4.75C8.4 4.58333 8.21333 4.5 8 4.5C7.78667 4.5 7.6 4.58333 7.44 4.75L5.36 6.91667C5.21333 7.06944 5.14 7.26389 5.14 7.5C5.14 7.73611 5.21333 7.93056 5.36 8.08333C5.50667 8.23611 5.69333 8.3125 5.92 8.3125C6.14667 8.3125 6.33333 8.23611 6.48 8.08333L7.2 7.33333V13.3333ZM1.6 10.8333C1.16 10.8333 0.783333 10.6701 0.47 10.3438C0.156667 10.0174 0 9.625 0 9.16667V1.66667C0 1.20833 0.156667 0.815972 0.47 0.489583C0.783333 0.163194 1.16 0 1.6 0H14.4C14.84 0 15.2167 0.163194 15.53 0.489583C15.8433 0.815972 16 1.20833 16 1.66667V9.16667C16 9.625 15.8433 10.0174 15.53 10.3438C15.2167 10.6701 14.84 10.8333 14.4 10.8333H11.2C10.9733 10.8333 10.7833 10.7535 10.63 10.5938C10.4767 10.434 10.4 10.2361 10.4 10C10.4 9.76389 10.4767 9.56597 10.63 9.40625C10.7833 9.24653 10.9733 9.16667 11.2 9.16667H14.4V1.66667H1.6V9.16667H4.8C5.02667 9.16667 5.21667 9.24653 5.37 9.40625C5.52333 9.56597 5.6 9.76389 5.6 10C5.6 10.2361 5.52333 10.434 5.37 10.5938C5.21667 10.7535 5.02667 10.8333 4.8 10.8333H1.6Z" fill="white"/>
</svg>
